<?xml version="1.0" encoding="UTF-8" standalone="no"?>
<!-- Created with Inkscape (http://www.inkscape.org/) -->

<svg
   xmlns:dc="http://purl.org/dc/elements/1.1/"
   xmlns:cc="http://creativecommons.org/ns#"
   xmlns:rdf="http://www.w3.org/1999/02/22-rdf-syntax-ns#"
   xmlns:svg="http://www.w3.org/2000/svg"
   xmlns="http://www.w3.org/2000/svg"
   xmlns:sodipodi="http://sodipodi.sourceforge.net/DTD/sodipodi-0.dtd"
   xmlns:inkscape="http://www.inkscape.org/namespaces/inkscape"
   width="210mm"
   height="297mm"
   viewBox="0 0 210 297"
   version="1.1"
   id="svg8"
   inkscape:version="0.92.1 r15371"
   sodipodi:docname="pezzoAngoli.svg">
  <defs
     id="defs2" />
  <sodipodi:namedview
     id="base"
     pagecolor="#ffffff"
     bordercolor="#666666"
     borderopacity="1.0"
     inkscape:pageopacity="0.0"
     inkscape:pageshadow="2"
     inkscape:zoom="0.35"
     inkscape:cx="400"
     inkscape:cy="560"
     inkscape:document-units="mm"
     inkscape:current-layer="layer1"
     showgrid="false"
     inkscape:window-width="1366"
     inkscape:window-height="705"
     inkscape:window-x="-8"
     inkscape:window-y="-8"
     inkscape:window-maximized="1" />
  <metadata
     id="metadata5">
    <rdf:RDF>
      <cc:Work
         rdf:about="">
        <dc:format>image/svg+xml</dc:format>
        <dc:type
           rdf:resource="http://purl.org/dc/dcmitype/StillImage" />
        <dc:title></dc:title>
      </cc:Work>
    </rdf:RDF>
  </metadata>
  <g
     inkscape:label="Livello 1"
     inkscape:groupmode="layer"
     id="layer1">
    <path
       id="path10"
       d="m 40.51805,25.306738 c -0.114982,3.023223 -0.07687,6.050168 -0.0687,9.074977 -0.0016,3.003685 5.29e-4,6.007285 0.0024,9.010975 0.01378,2.917164 -0.01013,5.834298 0.0041,8.751461 0.02765,2.203638 0.02979,4.407355 0.04011,6.611097 -0.01116,2.433682 -0.02813,4.867325 -0.03679,7.301023 0.01654,3.385952 -0.01371,6.763038 -0.237538,10.141992 -0.199713,3.842952 -0.626478,7.666964 -0.943962,11.500729 -0.398208,3.420827 -0.772657,6.840971 -0.947515,10.281202 -0.02233,2.843196 -0.286099,5.670266 -0.66076,8.486596 -0.413948,3.1127 -1.005665,6.19596 -1.558081,9.28585 -0.619866,3.53371 -1.135022,7.0762 -1.443402,10.65089 -0.211185,2.63727 -0.22928,5.28258 -0.245848,7.92632 0.01019,2.13304 0.0066,4.26609 0.01339,6.39913 -0.0073,2.00305 0.01101,4.00606 0.0213,6.00906 0.0078,1.57511 0.0096,3.15024 0.01056,4.72537 0,0 -9.970393,5.08015 -9.970393,5.08015 v 0 c 0.0011,-1.57853 0.0029,-3.15706 0.01014,-4.73557 0.0092,-2.00809 0.02563,-4.01625 0.01224,-6.02436 -4.77e-4,-2.13901 -0.0193,-4.27803 0.0025,-6.41701 0.01613,-2.6846 0.06686,-5.37269 0.290187,-8.04908 0.319182,-3.60204 0.824739,-7.1785 1.419921,-10.74468 0.525469,-3.07361 1.084721,-6.14043 1.514076,-9.22914 0.440344,-2.78007 0.647613,-5.59814 0.730766,-8.41064 0.202372,-3.456524 0.51317,-6.898245 0.980041,-10.330068 0.30576,-3.830921 0.806727,-7.644455 0.950359,-11.487674 0.233236,-3.343479 0.262316,-6.68438 0.192953,-10.03564 -0.0087,-2.421202 -0.02561,-4.842346 -0.03679,-7.263532 0.01035,-2.217367 0.01257,-4.434708 0.04011,-6.651972 0.01418,-2.918558 -0.0096,-5.837089 0.0041,-8.755647 0.0019,-3.004539 0.0041,-6.008992 0.0024,-9.013526 0.0081,-3.001444 0.04741,-6.005168 -0.06871,-9.004961 0,0 9.97658,-5.083322 9.97658,-5.083322 z"
       inkscape:connector-curvature="0"
       style="stroke-width:0.26458332" />
    <path
       id="path12"
       d="m 40.699205,27.608823 c 2.416445,0.05582 4.834213,0.04135 7.251163,0.03168 1.852687,-0.0099 3.705381,-0.01794 5.558089,-0.02199 1.523278,-0.0027 3.046558,-0.0027 4.569838,-0.0028 1.5073,1.8e-5 3.014599,1.16e-4 4.521899,1.66e-4 2.248437,-0.09376 2.904373,2.278793 3.262974,4.064344 0.3269,2.229316 0.344299,4.490128 0.366662,6.739025 0.0088,1.648254 -7.94e-4,3.296531 -0.0059,4.944779 -0.0045,1.508797 -0.0055,3.0176 -0.0061,4.526399 -2.65e-4,1.005909 -2.65e-4,2.011818 -2.65e-4,3.017727 0,0 -9.971003,5.080534 -9.971003,5.080534 v 0 c -9.5e-5,-1.005967 -2.25e-4,-2.011931 -1.69e-4,-3.017898 2.54e-4,-1.510504 2.65e-4,-3.021015 0.0067,-4.531511 0.0085,-1.652701 0.02543,-3.305315 0.0453,-4.957918 0.01566,-2.188782 0.0395,-4.387758 -0.248203,-6.562405 -0.322426,-1.739842 -0.469672,-2.863477 -2.503429,-2.725312 -1.507453,5.1e-5 -3.014903,1.48e-4 -4.522356,1.67e-4 -1.520709,-7.4e-5 -3.041417,-7.1e-5 -4.562121,-0.0028 -1.832541,-0.004 -3.665064,-0.01204 -5.497578,-0.02199 -2.446031,-0.0099 -4.892802,-0.0231 -7.338359,0.03167 0,0 9.072938,-6.591874 9.072938,-6.591874 z"
       inkscape:connector-curvature="0"
       style="stroke-width:0.26458332" />
    <path
       id="path14"
       d="m 69.466909,51.658366 c 2.507223,-0.211508 5.015235,-0.405035 7.528705,-0.523653 1.755614,-0.07628 3.51304,-0.08543 5.269992,-0.08906 1.523498,0.117904 2.98776,-0.312592 4.485735,-0.518708 0.759032,-0.09805 1.523196,-0.138271 2.286818,-0.178715 0,0 -9.008184,6.63947 -9.008184,6.63947 v 0 c -0.746416,0.06303 -1.492996,0.128206 -2.232787,0.249915 -1.520092,0.245305 -3.031657,0.492331 -4.579763,0.385254 -1.729816,0.0048 -3.460025,0.01672 -5.188526,0.09108 -2.518778,0.117816 -5.039326,0.280321 -7.537106,0.637302 0,0 8.975116,-6.692892 8.975116,-6.692892 z"
       inkscape:connector-curvature="0"
       style="stroke-width:0.26458332" />
    <path
       id="path16"
       d="m 90.655284,56.397604 c 1.805088,1.83466 3.068479,4.086918 4.300874,6.322941 1.249365,2.290154 2.401893,4.609356 3.177725,7.102215 0.786199,2.175463 1.819344,4.227534 2.362507,6.487351 0.42907,1.682072 0.9572,3.321095 1.57643,4.94131 0.6397,1.653382 0.91395,3.409191 1.2719,5.136875 0.51005,1.618552 1.06227,3.223294 1.515,4.859422 0.46818,1.588611 0.4147,3.2624 0.8741,4.847135 0.5016,1.518018 1.00165,3.038755 1.44752,4.574417 0.56101,1.35875 0.97777,2.88 1.90568,4.04238 0,0 -9.637814,5.71825 -9.637814,5.71825 v 0 c -0.945555,-1.32724 -1.467051,-2.9157 -2.090161,-4.41058 -0.419756,-1.53283 -0.937725,-3.03856 -1.427543,-4.54966 -0.530738,-1.597853 -0.504113,-3.258286 -0.881348,-4.893707 -0.435975,-1.661713 -1.033061,-3.272981 -1.543251,-4.912802 -0.363691,-1.669603 -0.605592,-3.370892 -1.181547,-4.985554 -0.646465,-1.670373 -1.246699,-3.334573 -1.633945,-5.089575 -0.489509,-2.24608 -1.481365,-4.284864 -2.274917,-6.430635 -0.784487,-2.408073 -1.80989,-4.709993 -3.058438,-6.917481 -1.195911,-2.14336 -2.375818,-4.356735 -4.263855,-5.983263 0,0 9.561083,-5.859039 9.561083,-5.859039 z"
       inkscape:connector-curvature="0"
       style="stroke-width:0.26458332" />
    <path
       id="path18"
       d="m 108.99902,110.11087 c -4.88472,3.10393 -10.031824,5.7673 -15.100111,8.53803 2.958666,-1.69647 5.907717,-3.40982 8.876001,-5.08941 0.21135,-0.1196 -0.39362,0.2859 -0.60333,0.40835 -3.383658,1.97577 -6.82109,3.86009 -10.175289,5.88546 -2.98273,1.80107 6.032134,-3.48945 9.060659,-5.21241 0.3785,-0.21534 -0.71337,0.50016 -1.058408,0.76584 -3.582628,2.61218 -7.428082,4.46877 -11.427883,6.67524 -3.030609,1.67182 6.004457,-3.44454 9.010658,-5.15985 0.410011,-0.23395 -0.802331,0.49812 -1.192803,0.7634 -10.53529,5.96639 -6.852682,3.93232 -10.986529,6.21189 0,0 8.729146,-6.99669 8.729146,-6.99669 v 0 c 3.797856,-1.80391 0.925783,-0.46399 -8.179001,4.84785 0.405472,-0.24583 0.759669,-0.57121 1.169049,-0.81047 3.382322,-1.97683 6.715207,-4.04807 10.196282,-5.84531 3.063019,-1.5814 -5.963214,3.46003 -8.940729,5.19708 -0.408807,0.23849 1.657181,-0.89354 1.195213,-0.76648 0.365422,-0.23969 0.663279,-0.5761 1.038239,-0.80058 3.347632,-2.00414 6.761466,-3.89637 10.107446,-5.90326 2.96788,-1.7801 -5.975988,3.49232 -8.973045,5.22285 -0.21367,0.12338 0.40972,-0.27553 0.622183,-0.40098 3.400626,-2.00784 6.811047,-3.99904 10.216572,-5.99856 0.88599,-0.49576 1.78671,-0.9536 2.68795,-1.42072 0.34385,-0.17821 1.36151,-0.73831 1.02777,-0.54183 -6.376869,3.75429 -11.670634,6.72497 -7.740328,4.51555 0,0 10.440288,-4.08499 10.440288,-4.08499 z"
       inkscape:connector-curvature="0"
       style="stroke-width:0.26458332" />
    <path
       id="path20"
       d="m 97.431176,124.28701 c 1.715267,1.30751 3.537984,2.47374 5.392614,3.57504 1.41403,0.72342 2.9008,1.32176 4.17957,2.27499 1.22711,0.60425 2.26912,1.42917 3.33356,2.276 0.18364,0.11343 0.36729,0.22687 0.55094,0.34031 0,0 -9.43444,6.04145 -9.43444,6.04145 v 0 c -0.20072,-0.14252 -0.40143,-0.28504 -0.60215,-0.42756 -1.040482,-0.84719 -2.17534,-1.49512 -3.306482,-2.20976 -1.301625,-0.85989 -2.740416,-1.46593 -4.085545,-2.25178 -1.863206,-1.18853 -3.711043,-2.39845 -5.533792,-3.64789 0,0 9.505725,-5.9708 9.505725,-5.9708 z"
       inkscape:connector-curvature="0"
       style="stroke-width:0.26458332" />
    <path
       id="path22"
       d="m 113.85336,143.8968 c -0.0694,2.11549 -0.0426,4.23285 -0.0306,6.34909 0.008,1.69469 0.0236,3.38942 0.0105,5.08411 0.0608,1.66643 -0.002,3.30317 -0.29409,4.94375 -0.27714,1.56697 -0.36764,3.15639 -0.42245,4.74395 -0.0397,1.52475 -0.0359,3.05019 -0.0353,4.57533 -0.0198,1.75049 7.9e-4,3.50106 -0.01,5.25158 -0.001,1.23932 -0.002,0.62212 2.6e-4,1.85159 0,0 -9.9422,5.06606 -9.9422,5.06606 v 0 c 0.001,-1.23008 0.002,-0.61301 -5.2e-4,-1.8512 -0.0122,-1.74569 0.006,-3.4915 -0.0181,-5.23714 -0.001,-1.53629 -0.005,-3.07276 0.0245,-4.60884 0.0431,-1.62999 0.11536,-3.26191 0.35483,-4.87696 0.24404,-1.59807 0.56291,-3.1524 0.39058,-4.78724 -0.0132,-1.69826 0.003,-3.39656 0.0105,-5.09482 0.0118,-2.10581 0.0394,-4.21282 -0.0306,-6.31786 0,0 9.99243,-5.0914 9.99243,-5.0914 z"
       inkscape:connector-curvature="0"
       style="stroke-width:0.26458332" />
    <path
       id="path24"
       d="m 91.59246,183.87927 c -2.101483,-0.0463 -4.203833,-0.028 -6.305653,-0.0202 -1.650834,0.0424 -3.258344,0.0786 -4.871445,-0.28351 -1.309971,-0.30907 -2.655202,-0.38141 -3.995029,-0.4311 -1.553059,-0.0371 -3.106835,-0.0381 -4.660275,-0.0409 -1.431867,-0.0105 -2.863755,-0.009 -4.295645,-0.0126 0,0 8.988845,-6.53176 8.988845,-6.53176 v 0 c 1.446901,-0.005 2.893798,-0.007 4.34067,-0.0186 1.573075,-0.002 3.147176,-0.0134 4.718806,0.0676 1.377723,0.0873 2.747539,0.24239 4.095216,0.55251 1.552943,0.24663 3.129669,0.10164 4.696148,0.14698 2.120378,0.008 4.241239,0.0255 6.361302,-0.0202 0,0 -9.07294,6.59187 -9.07294,6.59187 z"
       inkscape:connector-curvature="0"
       style="stroke-width:0.26458332" />
    <path
       id="path26"
       d="m 66.031808,181.85413 c -1.050756,1.59224 -2.461996,2.85768 -3.771953,4.22278 -0.974207,1.1013 -2.231319,1.87933 -3.360208,2.80232 -1.231117,0.88469 -2.289107,1.94248 -3.594823,2.72003 -0.937696,0.53005 -1.750978,1.24304 -2.606278,1.89107 0,0 -10.382864,4.1387 -10.382864,4.1387 v 0 c 0.864468,-0.66342 1.731063,-1.31108 2.555725,-2.02415 0.661596,-0.37087 1.47616,-0.66388 2.050362,-1.17019 0.518985,-0.45763 0.908441,-1.08354 1.55122,-1.41265 1.20505,-0.81535 2.320359,-1.77739 3.492346,-2.64173 1.255602,-1.37202 2.781851,-2.50821 3.743741,-4.11591 0,0 10.322732,-4.41027 10.322732,-4.41027 z"
       inkscape:connector-curvature="0"
       style="stroke-width:0.26458332" />
    <path
       id="path28"
       d="m 54.889071,201.34918 c 0.135681,2.09186 0.312902,4.19618 0.635701,6.26912 0.318683,1.68787 0.932209,3.29253 1.279404,4.97579 0.30535,1.6763 0.309194,3.38667 0.335446,5.08474 0.01,1.12394 0.0063,0.56566 0.01119,1.67484 0,0 -9.958181,5.07525 -9.958181,5.07525 v 0 c 0.0026,-1.10571 0.0021,-0.54958 0.0013,-1.66839 -0.01135,-1.63534 -0.01754,-3.27836 -0.256638,-4.89983 -0.305138,-1.70865 -0.92148,-3.32349 -1.25749,-5.02229 -0.365043,-2.11699 -0.398878,-4.28028 -0.783051,-6.39784 0,0 9.992429,-5.09139 9.992429,-5.09139 z"
       inkscape:connector-curvature="0"
       style="stroke-width:0.26458332" />
    <path
       id="path30"
       d="m 61.911663,226.57979 c 2.191912,0.50949 4.322419,1.21013 6.316969,2.25929 0.270307,0.13955 0.536697,0.28697 0.810922,0.41866 0.639524,0.30712 0.833662,0.30622 1.406517,0.72647 0.519565,0.38115 0.933757,0.83625 1.480772,1.18703 0.669134,0.54342 1.493121,0.78089 2.233398,1.19846 0,0 -9.382286,6.14056 -9.382286,6.14056 v 0 c -0.797118,-0.39402 -1.610132,-0.7613 -2.318139,-1.3099 -1.12858,-0.85466 -2.19937,-1.71931 -3.54354,-2.24304 -1.948212,-0.95316 -4.010941,-1.63645 -6.169136,-1.91579 0,0 9.164523,-6.46174 9.164523,-6.46174 z"
       inkscape:connector-curvature="0"
       style="stroke-width:0.26458332" />
    <path
       id="path32"
       d="m 79.835498,238.39085 c -0.06944,2.11549 -0.04259,4.23285 -0.03064,6.34908 0.01074,1.6632 0.01582,3.32642 0.01844,4.98965 0.0016,1.26088 0.0016,2.52176 0.0016,3.78265 0,0 -9.971334,5.08065 -9.971334,5.08065 v 0 c 6.1e-5,-1.26145 8e-5,-2.52289 0.0016,-3.78434 0.0026,-1.66949 0.0077,-3.33897 0.01844,-5.00844 0.01183,-2.10581 0.03937,-4.21281 -0.03064,-6.31786 0,0 9.992429,-5.09139 9.992429,-5.09139 z"
       inkscape:connector-curvature="0"
       style="stroke-width:0.26458332" />
    <path
       id="path34"
       d="m 58.524613,265.8509 c -1.8756,0.61642 -3.745733,1.27365 -5.625637,1.89965 -1.522508,0.44331 -2.963526,1.12546 -4.450408,1.67794 -1.551231,0.31554 -2.920169,1.14437 -4.419338,1.62845 -1.434955,0.1596 -2.681105,0.80119 -3.991388,1.34131 -0.649171,0.65815 -1.52872,0.79026 -2.334329,1.12101 -2.019244,0.82902 1.155232,-0.23757 -1.175588,0.50856 -0.527021,0.45233 -1.224204,0.56292 -1.826326,0.85174 -0.584642,0.28041 -1.053206,0.60159 -1.678959,0.81741 0,0 8.807778,-6.94711 8.807778,-6.94711 v 0 c 1.157854,-0.5746 2.322965,-1.1356 3.514482,-1.63717 1.174408,-0.53356 2.357392,-1.02809 3.486832,-1.65499 1.302885,-0.55954 2.665632,-0.86688 4.014539,-1.2874 1.45692,-0.58856 2.902164,-1.19879 4.409107,-1.65309 1.458094,-0.59194 2.932871,-1.14943 4.439483,-1.60564 1.898766,-0.65014 3.799017,-1.29197 5.695423,-1.94839 0,0 -8.865671,6.88772 -8.865671,6.88772 z"
       inkscape:connector-curvature="0"
       style="stroke-width:0.26458332" />
    <path
       id="path36"
       d="m 37.502166,277.70037 c -0.04503,1.07436 -0.04149,2.14984 -0.04386,3.22487 0,0 -9.904701,5.04669 -9.904701,5.04669 v 0 c -0.0024,-1.06011 0.0019,-2.12074 -0.04387,-3.18016 0,0 9.992429,-5.0914 9.992429,-5.0914 z"
       inkscape:connector-curvature="0"
       style="stroke-width:0.26458332" />
    <path
       id="path38"
       d="m 38.202745,280.03965 c -0.276209,2.18586 -0.885962,4.29821 -1.473202,6.41398 -0.486604,1.42888 -1.038286,2.81599 -1.306137,4.30644 -0.345715,5.32577 -6.605762,7.97131 -11.720096,8.61446 -1.749485,0.19508 -3.512392,0.18809 -5.270141,0.18508 -1.561819,-0.009 -3.123629,-0.018 -4.685466,-0.0228 -1.51124,-0.004 -3.022485,-0.004 -4.533729,-0.004 -1.7512244,0.22193 -2.4244702,-0.33028 -3.8898547,-0.98774 -1.2256232,-0.28623 -2.4168777,-0.67202 -3.6506244,-0.93419 -5.5729423,-1.20471 8.0644996,-5.52604 8.3358401,-7.18609 0.591953,-3.62156 -12.4440394,8.20132 -8.9457848,5.04124 0.7103321,-1.60126 1.28065,-3.26054 1.9489128,-4.88072 0.4907206,-1.41541 0.9694804,-2.83368 1.4756466,-4.24455 0.418311,-1.2664 0.9833546,-2.47917 1.4050547,-3.743 0.4040647,-1.32041 0.8408508,-2.62512 1.3311063,-3.91539 0.4037867,-1.3331 0.6148599,-2.71579 0.9159811,-4.07614 0.1285184,-0.91935 0.4029355,-1.80211 0.6711349,-2.687 0,0 10.1267494,-4.80968 10.1267494,-4.80968 v 0 c -0.236853,0.87977 -0.625748,1.71281 -0.72295,2.62279 -0.278138,1.40308 -0.605644,2.78561 -0.837157,4.19663 -0.41252,1.303 -0.992958,2.53564 -1.358886,3.85721 -0.321606,1.34252 -0.97338,2.52925 -1.366297,3.84775 -0.601505,1.38592 -1.044056,2.83543 -1.506094,4.27149 -0.652694,1.62763 -1.351364,3.23434 -1.870896,4.91217 -0.74305,3.88948 -1.7688525,10.28489 -10.0654952,6.6479 -9.1623974,-4.01651 6.5023346,-7.29782 9.6677612,-6.22652 1.280425,0.3212 2.587452,0.60163 3.807945,1.10868 1.172568,0.56494 2.263327,0.73705 3.581599,0.60767 1.511774,0 3.023553,0.003 4.535315,0.008 1.556849,0.008 3.113661,0.0228 4.670529,0.0251 1.70684,-0.0103 3.439673,0.003 5.105805,-0.41683 3.975264,-1.67243 0.165148,-0.10737 -8.279425,5.02642 -0.161572,0.0982 0.381119,-0.0774 0.535876,-0.18608 0.518573,-0.36404 0.482207,-1.18443 0.533637,-1.71706 0.193059,-1.55724 0.591902,-3.04493 1.302748,-4.45376 0.567774,-2.06391 1.327562,-4.09869 1.468061,-6.25298 0,0 10.062533,-4.94853 10.062533,-4.94853 z"
       inkscape:connector-curvature="0"
       style="stroke-width:0.26458332" />
    <path
       id="path40"
       d="m 20.047636,190.92278 c -0.388122,2.55878 -0.499759,5.14333 -0.839021,7.70826 -0.43092,2.0988 -0.909112,4.1819 -1.175459,6.30993 -0.173411,1.60655 -0.13701,3.21861 -0.381371,4.81718 -0.287714,1.47348 -0.433703,2.96511 -0.513928,4.46242 -0.09689,1.89242 -0.08328,3.78795 -0.07687,5.68213 0.0081,1.62511 0.01414,3.25024 0.0173,4.87537 -0.01687,1.87387 -0.01989,3.74775 -0.0136,5.62168 0.05247,1.78304 -0.102469,3.57715 0.07437,5.35415 0.328917,1.72082 0.472782,3.46754 0.583896,5.21358 0.09402,1.65238 0.108185,3.3077 0.116286,4.96227 0.0097,1.63432 -0.01015,3.26851 -0.0118,4.90281 -0.121526,1.82269 0.122463,3.58321 0.597654,5.33613 0.541139,1.72911 0.717936,3.5302 0.838898,5.32853 0.08951,1.61535 0.091,3.23372 0.09292,4.85101 -0.0011,1.51525 -0.0047,3.03049 -0.0065,4.54573 -0.02412,1.50154 0.05011,3.00588 -0.05102,4.50482 -0.14201,0.87165 -0.06389,0.44143 -0.233466,1.2908 0,0 -10.0904756,4.89037 -10.0904756,4.89037 v 0 c 0.1695688,-0.82873 0.079232,-0.41923 0.2703854,-1.22862 0.3127846,-1.42772 0.043309,-2.92552 0.1329648,-4.37798 0.00153,-1.51551 0.00428,-3.03104 0.00931,-4.54655 0.00392,-1.6008 0.013832,-3.20225 -0.043815,-4.80232 -0.084699,-1.7281 -0.2236923,-3.45967 -0.7257598,-5.12565 -0.5031094,-1.83463 -0.8761722,-3.68077 -0.7403052,-5.59788 9.26e-4,-1.63009 -0.013451,-3.2601 -0.00505,-4.89021 1.278e-4,-1.64049 0.0019,-3.28161 -0.06385,-4.9211 -0.085561,-1.72498 -0.2161543,-3.44955 -0.5770261,-5.14259 -0.2370537,-1.81416 -0.045808,-3.65725 -0.1064848,-5.48314 0.00611,-1.86868 0.00319,-3.73731 -0.015737,-5.60592 9.261e-4,-1.62989 0.00257,-3.25978 0.00858,-4.88966 0.00715,-1.90439 0.010247,-3.80886 0.024828,-5.71316 0.059464,-1.53644 0.1600279,-3.07403 0.4563231,-4.58609 0.2966834,-1.58666 0.320461,-3.17126 0.4311825,-4.78103 0.2463257,-2.14952 0.670174,-4.26975 1.2261942,-6.36111 0.3812299,-2.53749 0.5682978,-5.08685 0.7524255,-7.64578 0,0 10.038028,-4.95838 10.038028,-4.95838 z"
       inkscape:connector-curvature="0"
       style="stroke-width:0.26458332" />
    <path
       id="path42"
       d="m 20.28849,190.89454 c 1.961739,0.17746 3.881452,-0.25143 5.81592,-0.49936 0.766318,-0.15003 1.591583,0.002 2.316777,-0.34874 0.180893,-0.0874 0.661773,-0.45394 0.48642,-0.35589 -9.191398,5.13959 -11.353771,7.93845 -8.779452,4.74242 0.623981,-1.33847 0.598241,-2.85362 0.622389,-4.30079 0.0064,-1.53284 -0.01293,-3.06564 -0.02238,-4.59843 -0.09222,-1.37815 0.281295,-2.71216 0.4945,-4.06037 0.05651,-1.19158 0.568337,-2.61433 -0.133994,-3.67715 -0.127025,-0.0894 -0.237928,-0.20796 -0.381076,-0.26832 -0.536027,-0.22602 -3.024973,0.0708 -3.672394,0.1009 -1.901049,0.11655 -3.774802,0.57485 -5.62274,1.03032 -1.4321159,0.72194 -2.9429089,1.12983 -4.5262811,1.32222 -1.6481867,-0.0572 -2.2820921,-1.36316 -2.6229448,-2.78558 -0.2531803,-1.51797 -0.2544225,-3.05242 -0.029519,-4.57095 0.3620653,-1.36035 0.8390437,-2.69537 1.3062976,-4.02519 0.5740231,-1.19748 0.9790226,-2.47422 1.5601124,-3.6663 0.6509917,-1.16293 1.425665,-2.25605 2.327147,-3.23749 0.8558479,-0.8275 1.5824509,-1.75161 2.2684459,-2.72178 0.800541,-0.8912 1.770021,-1.6197 2.659266,-2.4225 3.691587,-3.27631 7.894045,-5.02272 12.402583,-7.60321 -18.2277042,10.44123 -5.878104,3.3791 0.948057,-0.58284 3.045728,-1.76776 -6.092984,3.53301 -9.153105,5.27573 -0.143682,0.0818 0.27876,-0.18057 0.401269,-0.29162 0.272434,-0.24695 0.497399,-0.54175 0.751607,-0.80742 0.853138,-0.66551 1.592701,-1.46627 2.52018,-2.03031 0.965391,-0.74775 1.765768,-1.73287 2.525299,-2.68965 0.769128,-1.16993 1.602669,-2.31681 2.191308,-3.59112 0.684898,-1.44145 0.911609,-3.02281 1.34715,-4.54289 0.347499,-1.40526 0.783963,-2.7879 1.108951,-4.19859 0.219564,-1.02757 0.290724,-2.076 0.349345,-3.12228 0,0 9.971974,-5.02547 9.971974,-5.02547 v 0 c -0.03598,1.09329 -0.05864,2.19007 -0.246946,3.27087 -0.269058,1.45503 -0.750774,2.8431 -1.06639,4.28605 -0.478658,1.5317 -0.707869,3.12016 -1.299766,4.61303 -0.449141,1.41992 -1.29876,2.58954 -2.084977,3.83915 -0.677307,1.1139 -1.61004,1.96999 -2.349453,3.03229 -0.823248,0.68626 -1.850797,1.10449 -2.542934,1.97079 -0.406511,0.24342 -0.51884,0.26049 -0.81866,0.64345 -0.122143,0.15602 -0.147881,0.39883 -0.316222,0.50333 -3.297245,2.04686 -6.850859,3.68701 -10.026825,5.91741 -0.304919,0.21414 26.301284,-15.26105 -0.979324,0.53889 20.047906,-11.65059 9.1888,-5.97789 6.775382,-3.58943 -0.95557,0.68906 -1.728342,1.60533 -2.728426,2.22268 -0.860277,0.84099 -1.286095,2.03061 -2.281105,2.74647 -0.827094,0.99372 -1.80011,1.88255 -2.406685,3.04516 -0.768526,1.07082 -0.922959,2.37164 -1.669561,3.465 -0.430239,1.30102 -0.814062,2.61922 -1.392718,3.86524 -0.263109,1.39207 -0.350012,2.77021 -0.137759,4.18303 0.193885,1.08032 0.488933,1.61341 1.690168,1.35977 1.525787,-0.31399 2.943101,-0.92203 4.43436,-1.35578 1.888219,-0.43743 3.804793,-0.82738 5.74948,-0.85781 1.716602,-0.0664 3.54265,-0.3536 4.761937,1.11426 0.909148,1.51057 0.636789,2.68854 0.4947,4.36773 -0.158861,1.31924 -0.566383,2.60043 -0.582364,3.92474 0.0075,1.53883 0.02223,3.07761 0.02687,4.61645 -0.0076,1.58993 -0.0021,3.19954 -0.380029,4.75425 -1.65612,5.14317 -8.28848,6.7988 -13.186476,7.25615 -1.973726,0.26014 -3.944213,0.47588 -5.940326,0.41135 0,0 9.072936,-6.59187 9.072936,-6.59187 z"
       inkscape:connector-curvature="0"
       style="stroke-width:0.26458332" />
    <path
       id="path44"
       d="m 6.661691,175.46055 c 1.8273456,-1.15793 3.559166,-2.44509 5.256971,-3.78285 1.197699,-1.07565 2.387,-2.22901 3.25683,-3.59131 0.618595,-1.61956 1.462069,-3.12419 2.246522,-4.66491 0.659747,-1.26563 1.272031,-2.54679 2.056053,-3.74077 0.729895,-1.444 1.180667,-3.01071 1.769044,-4.51664 0.513184,-1.71406 1.057644,-3.40251 1.740876,-5.05905 0.909598,-1.58734 1.536464,-3.29318 2.230748,-4.97722 0.83289,-1.84147 1.437673,-3.77759 2.056388,-5.69894 0.431924,-1.75418 1.057762,-3.43605 1.753724,-5.09792 0.459666,-1.39781 0.819111,-2.81998 1.331685,-4.20216 0.599943,-1.61598 1.096156,-3.25741 1.406052,-4.95318 0.267353,-1.68788 0.285996,-3.4001 0.316444,-5.10461 0.09537,-1.82643 -0.03506,-3.62218 -0.317505,-5.42373 -0.133938,-2.0447 -0.717545,-3.97612 -1.326917,-5.91899 -0.681554,-2.21672 -1.376096,-4.42498 -1.811891,-6.70513 -0.19317,-1.46667 -0.646364,-2.874686 -0.880419,-4.334858 -0.228587,-1.937617 -0.188471,-3.897923 -0.192281,-5.846169 -0.0282,-2.354816 -0.04955,-4.704525 0.188854,-7.049051 0.258768,-2.044104 0.300329,-4.105748 0.748123,-6.120241 0.486936,-1.877504 1.255096,-3.664116 2.062406,-5.422114 0.886089,-1.587465 1.655556,-3.232007 2.292048,-4.935008 0.489188,-1.408875 1.252119,-2.692522 1.730073,-4.103976 0.414904,-1.53402 1.03927,-2.994758 1.69899,-4.436115 0.585047,-1.311164 0.823741,-2.728534 1.330325,-4.068339 0.60869,-1.10064 1.029851,-2.288551 1.424321,-3.479086 0.446299,-1.358167 0.385154,-2.802922 0.762085,-4.172238 0.08282,-0.179266 0.16565,-0.358534 0.248475,-0.537803 0,0 10.238645,-4.6063 10.238645,-4.6063 v 0 c -0.09432,0.157101 -0.188643,0.314206 -0.282964,0.471307 -0.82079,1.172792 -0.415271,2.720128 -0.845132,4.049538 -0.328454,1.248722 -0.751126,2.497323 -1.320242,3.653152 -0.814099,1.211972 -0.858834,2.698729 -1.388673,4.035013 -0.614442,1.418846 -1.317591,2.797256 -1.773169,4.280926 -0.319415,1.500785 -1.029594,2.81259 -1.707512,4.178752 -0.563235,1.746208 -1.283454,3.488325 -2.262389,5.039982 -0.791318,1.721326 -1.617366,3.426526 -2.152213,5.248688 -0.594008,1.946084 -0.559824,3.982799 -0.853123,5.987457 -0.261781,2.309958 -0.294817,4.611116 -0.243049,6.936285 0.01749,1.887807 0.0113,3.781179 0.204669,5.661287 0.199215,1.463585 0.657852,2.867895 0.816705,4.335621 0.358561,2.25435 1.011153,4.42696 1.685938,6.60435 0.635855,1.98141 1.391473,3.92304 1.485109,6.02772 0.285425,1.86205 0.499557,3.70603 0.375767,5.59654 0.0043,1.75198 0.01333,3.51037 -0.216445,5.25098 -0.265912,1.75648 -0.718154,3.45719 -1.301615,5.13494 -0.506204,1.39084 -1.022221,2.76694 -1.311826,4.22423 -0.63178,1.68218 -1.525211,3.26187 -1.852967,5.05512 -0.601427,1.9535 -1.218758,3.90777 -1.95816,5.81333 -0.843216,1.60975 -1.173586,3.45529 -2.250588,4.95955 -0.752388,1.61176 -1.347756,3.27076 -1.742953,5.00266 -0.584383,1.54668 -1.179764,3.08442 -1.68507,4.65905 -0.30684,0.63345 -0.759056,1.08675 -1.075823,1.70168 -0.339386,0.65884 -0.538541,1.39775 -1.032761,1.97739 -0.708702,1.59183 -1.775906,3.00531 -2.218395,4.71411 -0.753618,1.64956 -1.857634,2.70461 -3.112032,3.98897 -1.609493,1.43017 -3.390948,2.65124 -5.157468,3.8751 0,0 -10.440288,4.08498 -10.440288,4.08498 z"
       inkscape:connector-curvature="0"
       style="stroke-width:0.26458332;fill:#00ffff" />
    <path
       style="fill:#00ffff;stroke-width:0.26458332"
       id="path46"
       d="m 2.74061,177.75373 c 1.0469845,-1.93532 1.851661,-3.98371 2.8046071,-5.9647 0.6533859,-1.79206 1.8319847,-3.29312 2.7255697,-4.95489 0.727239,-1.40337 1.4850549,-2.7857 2.1327042,-4.22802 0.60393,-1.20456 1.162568,-2.42669 1.622276,-3.69316 0.693646,-1.51547 1.332418,-3.05492 2.002859,-4.58089 0.85448,-1.45867 1.492817,-3.00386 2.069555,-4.58786 0.523544,-1.56613 1.331649,-3.00619 1.951937,-4.53423 0.628833,-1.23496 1.197742,-2.47399 1.635173,-3.78921 0.501704,-1.6121 1.072727,-3.19877 1.658455,-4.78232 0.938049,-2.21331 1.605434,-4.51665 2.335541,-6.80197 0.719887,-2.26763 1.383224,-4.5493 1.972373,-6.85395 0.544961,-1.84956 0.798688,-3.76134 1.212988,-5.63991 0.502121,-1.90375 1.259531,-3.72702 1.877002,-5.59544 0.767509,-2.66186 1.518825,-5.33366 2.07006,-8.04997 0.38661,-2.88093 0.626401,-5.784072 0.888349,-8.680283 0.304031,-3.374916 0.384183,-6.764885 0.410147,-10.151734 0.0052,-2.207868 -0.02244,-4.415615 -0.0391,-6.623383 -0.01117,-1.541624 -0.01339,-3.083293 -0.01471,-4.624951 -0.01196,-1.537952 -0.04965,-3.067 0.17476,-4.591452 0.182049,-1.543071 0.615757,-3.0337 0.940218,-4.548267 0.29292,-1.46454 0.349684,-2.959248 0.386987,-4.447797 0.02698,-1.661665 0.0301,-3.323468 0.02524,-4.985305 -0.0067,-1.607487 -0.01124,-3.214979 -0.01365,-4.822479 -0.0019,-1.516435 -0.0019,-3.032871 -0.0019,-4.549309 -8e-6,-1.510697 5.8e-5,-3.021393 9e-5,-4.53209 2.9e-5,-1.511758 3.4e-5,-3.023516 3.7e-5,-4.535273 -0.06461,-0.941176 0.09955,-1.859592 0.282554,-2.776498 0,0 10.090435,-4.890407 10.090435,-4.890407 v 0 c -0.175331,0.856898 -0.47335,1.701786 -0.402113,2.586489 0,1.511753 2e-6,3.023505 1.5e-5,4.535255 1.1e-5,1.510681 3.8e-5,3.021359 0,4.53204 -7.1e-5,1.516764 -1.61e-4,3.03353 -0.0011,4.550293 -0.0011,1.610032 -0.0031,3.220064 -0.0041,4.830096 2.64e-4,1.665698 0.0191,3.331321 0.0056,4.996961 -0.02389,1.544788 -0.05797,3.095204 -0.302694,4.62408 -0.275515,1.519695 -0.77117,2.980807 -0.954166,4.516771 -0.272212,1.471033 -0.309666,2.9279 -0.254442,4.425373 2.64e-4,1.544831 0.0011,3.089669 -0.0053,4.634489 -0.01201,2.234748 -0.03886,4.469371 -0.08371,6.703716 -0.06426,3.410882 -0.112757,6.824242 -0.371237,10.227464 -0.265657,2.917147 -0.486219,5.83647 -0.78024,8.75008 -0.503362,2.754591 -1.351121,5.425731 -2.01209,8.144631 -0.49992,1.86995 -1.20124,3.67267 -1.866532,5.48977 -0.385932,1.90938 -0.722265,3.82952 -1.231046,5.71267 -0.640707,2.31342 -1.189667,4.64704 -1.977614,6.92027 -0.744567,2.28423 -1.311315,4.62103 -2.266778,6.83388 -0.611392,1.55308 -1.103234,3.14195 -1.607749,4.72806 -0.493519,1.31542 -0.818777,2.68217 -1.579359,3.88735 -0.368506,0.67753 -0.564668,1.39222 -0.901647,2.08565 -0.246012,0.50624 -0.580422,0.96678 -0.81974,1.47622 -0.130595,0.278 -0.216679,0.57481 -0.325019,0.86222 -0.475586,1.63778 -1.075985,3.26436 -2.004413,4.70533 -0.727143,1.47853 -1.238341,3.0503 -2.022544,4.50133 -0.510363,1.28272 -0.898932,2.58309 -1.559292,3.80147 -0.798811,1.36256 -1.277818,2.91451 -2.186745,4.22837 -0.287593,0.64629 -0.48794,1.16395 -0.873811,1.76144 -0.672665,1.04157 -1.534412,1.96608 -1.850591,3.21048 -1.024391,1.91873 -1.776097,3.95246 -2.78168,5.87533 0,0 -10.1803769,4.67817 -10.1803769,4.67817 z"
       inkscape:connector-curvature="0" />
    <path
       style="fill:#ff0000;stroke-width:0.26458332"
       id="path48"
       d="m 181.94647,282.07343 c 0.95306,-1.45077 1.86869,-2.9259 2.88667,-4.33237 0,0 10.24785,-4.38224 10.24785,-4.38224 v 0 c -1.11811,1.28034 -2.0177,2.75217 -2.86359,4.22074 0,0 -10.27093,4.49387 -10.27093,4.49387 z"
       inkscape:connector-curvature="0" />
    <path
       style="fill:#ff0000;stroke-width:0.26458332"
       id="path50"
       d="m 25.814583,24.260697 c -1.205045,-1.600278 -2.231431,-3.33957 -3.481824,-4.905697 -0.197353,-0.257451 -0.394705,-0.514902 -0.592057,-0.772353 0,0 9.586501,-5.693536 9.586501,-5.693536 v 0 c 0.189752,0.255029 0.379505,0.510058 0.569257,0.765088 1.21762,1.59178 2.262616,3.309192 3.553653,4.847521 0,0 -9.63553,5.758977 -9.63553,5.758977 z"
       inkscape:connector-curvature="0" />
    <path
       style="fill:#ff0000;stroke-width:0.26458332"
       id="path52"
       d="m 68.570604,22.050102 c 3.220093,-2.41432 6.673739,-4.49216 10.04892,-6.67898 1.282866,-0.857635 2.595242,-1.669421 3.906279,-2.482814 0,0 10.323668,-3.9995969 10.323668,-3.9995969 v 0 c -1.346089,0.8324104 -2.721469,1.6168919 -4.027889,2.5121939 -3.313618,2.098335 -6.660838,4.161857 -9.833176,6.468451 0,0 -10.417802,4.180746 -10.417802,4.180746 z"
       inkscape:connector-curvature="0" />
    <path
       style="fill:#ff0000;stroke-width:0.26458332"
       id="path54"
       d="m 66.357401,48.427123 c 1.504117,-1.665329 2.999806,-3.328222 4.631021,-4.870608 1.526532,-1.259131 2.991019,-2.595912 4.57423,-3.784947 1.250056,-1.077888 2.544366,-2.105856 3.767326,-3.214872 1.211998,-1.047584 2.54396,-1.94446 3.74115,-3.008297 0.164308,-0.14469 0.328617,-0.28938 0.492929,-0.434068 0,0 10.352886,-4.288467 10.352886,-4.288467 v 0 c -0.155167,0.174874 -0.310337,0.349748 -0.465508,0.524619 -1.253296,1.00579 -2.420998,2.12067 -3.780258,2.996718 -1.254479,1.081405 -2.490462,2.171332 -3.732802,3.269282 -1.818947,1.500896 0.606988,-0.460396 -1.421638,1.040101 -1.125363,0.832387 -2.025915,1.943044 -3.232462,2.677898 -1.628302,1.494414 -3.165425,3.048685 -4.618382,4.712816 0,0 -10.308492,4.379825 -10.308492,4.379825 z"
       inkscape:connector-curvature="0" />
    <path
       style="fill:#ff0000;stroke-width:0.26458332"
       id="path56"
       d="m 94.885601,56.182945 c 1.192102,-3.155911 2.531362,-6.235968 4.229831,-9.153089 1.558098,-2.541145 3.697958,-4.580339 6.177258,-6.201214 4.05577,-2.402975 7.84963,-5.034063 12.2446,-6.573599 0,0 -8.78553,6.884268 -8.78553,6.884268 v 0 c -3.56933,1.469821 -8.57849,4.161205 6.91181,-4.301893 -2.59639,1.370968 -4.83091,3.324847 -6.50024,5.750769 -1.77399,2.74728 -3.10382,5.712164 -4.11581,8.822338 0,0 -10.161919,4.77242 -10.161919,4.77242 z"
       inkscape:connector-curvature="0" />
    <path
       style="fill:#ff0000;stroke-width:0.26458332"
       id="path58"
       d="m 110.86105,106.7411 c 3.0082,-3.38189 6.16927,-6.62321 9.7657,-9.378538 0.65376,-0.401527 1.29178,-0.829879 1.96128,-1.204577 3.82254,-2.139346 7.61682,-4.334158 11.51289,-6.336469 0.72283,-0.371483 1.53429,-0.538541 2.31353,-0.769353 2.1655,-0.641426 4.3438,-1.004048 6.57602,-1.302922 1.82597,-0.208663 3.66116,-0.299445 5.49594,-0.382664 0,0 -8.89114,6.520281 -8.89114,6.520281 v 0 c -1.78609,0.07759 -3.57348,0.161549 -5.34634,0.409471 -2.17473,0.345427 -4.30382,0.736518 -6.39976,1.436188 -0.76246,0.254526 -2.912,1.315789 -2.25643,0.850651 2.76232,-1.959919 10.98321,-6.42253 5.15782,-3.233838 -3.60498,2.527012 -6.72772,5.619943 -9.56678,8.98151 0,0 -10.32273,4.41026 -10.32273,4.41026 z"
       inkscape:connector-curvature="0" />
    <path
       style="fill:#ff0000;stroke-width:0.26458332"
       id="path60"
       d="m 72.693651,126.42689 c -2.066179,-0.37209 -4.162023,-0.54668 -6.255674,-0.6725 -1.630296,-0.13964 -3.005542,-0.79467 -4.453964,-1.47174 -0.945501,-0.35916 -0.467569,-0.19943 -1.433586,-0.47982 0,0 9.25141,-6.28683 9.25141,-6.28683 v 0 c 1.019537,0.3653 0.516083,0.16791 1.510427,0.59199 1.334704,0.61986 2.705343,1.04835 4.185303,1.16162 2.091659,0.17068 4.173495,0.46398 6.269022,0.5654 0,0 -9.072938,6.59188 -9.072938,6.59188 z"
       inkscape:connector-curvature="0" />
    <path
       style="fill:#ff0000;stroke-width:0.26458332"
       id="path62"
       d="m 120.83016,128.90644 c 1.42224,0.037 2.84517,0.0294 4.26775,0.0272 0,0 -8.99819,6.53757 -8.99819,6.53757 v 0 c -1.4475,-0.002 -2.89531,-0.009 -4.3425,0.0272 0,0 9.07294,-6.59188 9.07294,-6.59188 z"
       inkscape:connector-curvature="0" />
    <path
       style="fill:#ff0000;stroke-width:0.26458332"
       id="path64"
       d="m 125.4491,141.00691 c 2.93289,-0.31423 5.87965,-0.45719 8.8253,-0.58807 0,0 -8.89012,6.51965 -8.89012,6.51965 v 0 c -3.00488,0.13391 -5.998,0.39145 -8.99373,0.64984 0,0 9.05855,-6.58142 9.05855,-6.58142 z"
       inkscape:connector-curvature="0" />
    <path
       style="fill:#ff0000;stroke-width:0.26458332"
       id="path66"
       d="m 150.3123,140.24573 c 2.28697,0.0601 4.57485,0.0563 6.86241,0.0507 0,0 -8.93342,6.49051 -8.93342,6.49051 v 0 c -2.33407,-0.006 -4.6684,-0.008 -7.00193,0.0507 0,0 9.07294,-6.59187 9.07294,-6.59187 z"
       inkscape:connector-curvature="0" />
    <path
       style="fill:#ff0000;stroke-width:0.26458332"
       id="path68"
       d="m 123.18124,178.80453 c 2.67858,0.43103 5.40676,0.39677 8.08541,0.79793 1.95125,0.46983 3.99332,0.37853 5.94212,0.81085 0.68752,0.18703 1.38625,0.31825 2.08805,0.43625 0,0 -9.18496,6.41559 -9.18496,6.41559 v 0 c -0.6908,-0.14357 -1.37796,-0.30177 -2.06837,-0.44714 -1.94552,-0.28467 -3.91176,-0.43265 -5.84475,-0.81124 -2.67915,-0.3192 -5.3815,-0.50899 -8.07604,-0.62082 0,0 9.05854,-6.58142 9.05854,-6.58142 z"
       inkscape:connector-curvature="0" />
    <path
       style="fill:#ff0000;stroke-width:0.26458332"
       id="path70"
       d="m 55.329804,172.23326 c -0.775243,-1.90513 -1.854063,-3.67055 -2.910848,-5.42949 -0.644171,-1.01885 -0.33328,-0.50526 -0.933117,-1.54049 0,0 9.673937,-5.57985 9.673937,-5.57985 v 0 c 0.57073,1.01233 0.267988,0.49933 0.911386,1.53712 1.03687,1.80096 2.092619,3.59492 3.008865,5.46108 0,0 -9.750223,5.55163 -9.750223,5.55163 z"
       inkscape:connector-curvature="0" />
    <path
       style="fill:#ff0000;stroke-width:0.26458332"
       id="path72"
       d="m 41.455157,196.94215 c 2.503546,0.0105 5.013163,0.15751 7.508248,-0.0798 1.998501,-0.26115 3.99805,-0.49698 6.010886,-0.60815 0,0 -9.000511,6.62602 -9.000511,6.62602 v 0 c -1.980068,0.14007 -3.948568,0.39157 -5.92677,0.55281 -2.553372,0.10441 -5.110078,0.0336 -7.664789,0.10102 0,0 9.072936,-6.59188 9.072936,-6.59188 z"
       inkscape:connector-curvature="0" />
    <path
       style="fill:#ff0000;stroke-width:0.26458332"
       id="path74"
       d="m 63.183719,220.04791 c 1.846675,-1.06664 3.814347,-1.98313 5.811266,-2.74449 0,0 -8.756168,6.89431 -8.756168,6.89431 v 0 c -1.995546,0.86704 -3.938765,1.8466 -5.92077,2.73789 0,0 8.865672,-6.88771 8.865672,-6.88771 z"
       inkscape:connector-curvature="0" />
    <path
       style="fill:#ff0000;stroke-width:0.26458332"
       id="path76"
       d="m 85.3554,226.77831 c 3.973089,-1.05167 7.76655,-2.66933 11.651665,-3.99785 0.595982,-0.18395 1.191964,-0.3679 1.787946,-0.55185 0,0 -8.68171,6.71772 -8.68171,6.71772 v 0 c -0.575336,0.1813 -1.150673,0.3626 -1.726009,0.5439 -3.955547,1.36815 -7.846026,2.92265 -11.85314,4.14128 0,0 8.821248,-6.8532 8.821248,-6.8532 z"
       inkscape:connector-curvature="0" />
    <path
       style="fill:#ff0000;stroke-width:0.26458332"
       id="path78"
       d="m 88.481201,258.78099 c 1.315696,0.72265 2.618528,1.47474 3.86503,2.31142 0,0 -9.372248,6.00375 -9.372248,6.00375 v 0 c -1.245542,-0.81651 -2.532189,-1.57565 -3.879712,-2.21327 0,0 9.38693,-6.1019 9.38693,-6.1019 z"
       inkscape:connector-curvature="0" />
    <path
       style="fill:#ff0000;stroke-width:0.26458332"
       id="path80"
       d="m 50.693044,276.3276 c 2.342811,0.0528 4.68657,0.0429 7.02981,0.0354 0,0 -8.946753,6.50018 -8.946753,6.50018 v 0 c -2.375715,-0.008 -4.751898,-0.0164 -7.127211,0.0354 0,0 9.044154,-6.57098 9.044154,-6.57098 z"
       inkscape:connector-curvature="0" />
    <path
       style="fill:#ff0000;stroke-width:0.26458332"
       id="path82"
       d="m 46.552765,291.10744 c 1.873811,-0.43527 3.625419,-1.16935 5.51466,-1.55025 1.712971,-0.31213 3.455453,-0.36406 5.191662,-0.39036 0.2481,-0.049 0.4962,-0.098 0.744302,-0.14693 0,0 -8.964245,6.6892 -8.964245,6.6892 v 0 c -0.270724,0.0175 -0.541451,0.0351 -0.812175,0.0526 -1.687547,0.0544 -3.380573,0.15608 -5.028753,0.55107 -1.858785,0.48305 -3.664913,1.1538 -5.511123,1.68238 0,0 8.865672,-6.88771 8.865672,-6.88771 z"
       inkscape:connector-curvature="0" />
    <path
       style="fill:#ff0000;stroke-width:0.26458332"
       id="path84"
       d="m 6.5825091,291.16914 c 3.7147229,-2.75913 8.1430219,-4.81428 12.0316349,-7.02871 0.839196,-0.47789 1.564448,-0.87289 2.485233,-1.17456 1.004267,-0.48901 0.500711,-0.26387 1.50963,-0.67771 0,0 -8.774969,6.93066 -8.774969,6.93066 v 0 c -0.984346,0.43336 -0.481382,0.2182 -1.509372,0.64436 -1.283346,0.60809 -0.33759,0.14185 -1.572673,0.79812 -0.278115,0.14779 -1.1094036,0.59618 -0.8380138,0.43638 15.3239028,-9.02285 10.3693128,-6.1013 7.0863318,-4.10927 0,0 -10.4178019,4.18073 -10.4178019,4.18073 z"
       inkscape:connector-curvature="0" />
    <path
       style="fill:#ff0000;stroke-width:0.26458332"
       id="path86"
       d="m 5.4138906,196.73046 c -2.0190147,-0.0173 -4.0409653,0.0801 -5.97707622,-0.56869 -1.00826128,-0.33085 -2.00387558,-0.68797 -3.01026018,-1.02725 0,0 9.2519549,-6.26794 9.2519549,-6.26794 v 0 c 0.9895202,0.34143 1.9865038,0.65788 2.9839584,0.97518 1.9150005,0.43168 3.8733585,0.34066 5.8243595,0.29682 0,0 -9.0729364,6.59188 -9.0729364,6.59188 z"
       inkscape:connector-curvature="0" />
    <path
       style="fill:#ff0000;stroke-width:0.26458332"
       id="path88"
       d="m 15.205727,191.52251 c -1.353477,-0.94421 -2.622154,-1.9981 -3.915786,-3.0215 0,0 9.434349,-5.93224 9.434349,-5.93224 v 0 c 1.301349,1.03238 2.574419,2.10199 3.987162,2.98294 0,0 -9.505725,5.9708 -9.505725,5.9708 z"
       inkscape:connector-curvature="0" />
    <path
       style="fill:#ff0000;stroke-width:0.26458332"
       id="path90"
       d="m 29.29002,172.44944 c 1.346679,-1.41856 2.933695,-2.56152 4.489686,-3.73267 0,0 10.260427,-4.08679 10.260427,-4.08679 v 0 c -1.490503,1.13888 -3.129325,2.12134 -4.390188,3.52824 0,0 -10.359925,4.29122 -10.359925,4.29122 z"
       inkscape:connector-curvature="0" />
    <path
       style="fill:#ff0000;stroke-width:0.26458332"
       id="path92"
       d="m -1.653785,176.21651 c 1.82968606,-1.16555 3.6806461,-2.29924 5.4698622,-3.52653 4.2001725,-2.7339 8.5026718,-5.40759 13.0928328,-7.43029 0,0 -8.7274251,6.94745 -8.7274251,6.94745 v 0 c -0.2757088,0.13856 -0.5529136,0.27419 -0.8271264,0.41568 -5.3776422,2.77497 12.2275945,-7.1653 6.8076645,-4.00025 -1.758953,1.22202 -3.545079,2.40108 -5.3755199,3.50895 0,0 -10.4402881,4.08499 -10.4402881,4.08499 z"
       inkscape:connector-curvature="0" />
  </g>
</svg>
