solid OpenSCAD_Model
  facet normal -0.940881 -0.338737 0
    outer loop
      vertex -11.6222 -4.60156 -61
      vertex -11.8882 -3.86271 61
      vertex -11.8882 -3.86271 -61
    endloop
  endfacet
  facet normal -0.940881 -0.338737 0
    outer loop
      vertex -11.8882 -3.86271 61
      vertex -11.6222 -4.60156 -61
      vertex -11.6222 -4.60156 61
    endloop
  endfacet
  facet normal -0.453991 -0.891006 0
    outer loop
      vertex -6.02192 -10.9538 -61
      vertex -5.32224 -11.3103 61
      vertex -6.02192 -10.9538 61
    endloop
  endfacet
  facet normal -0.453991 -0.891006 -0
    outer loop
      vertex -5.32224 -11.3103 61
      vertex -6.02192 -10.9538 -61
      vertex -5.32224 -11.3103 -61
    endloop
  endfacet
  facet normal 0.750111 -0.661312 0
    outer loop
      vertex 9.11211 -8.55684 61
      vertex 9.63142 -7.9678 -61
      vertex 9.63142 -7.9678 61
    endloop
  endfacet
  facet normal 0.750111 -0.661312 0
    outer loop
      vertex 9.63142 -7.9678 -61
      vertex 9.11211 -8.55684 61
      vertex 9.11211 -8.55684 -61
    endloop
  endfacet
  facet normal -0.707107 -0.707107 0
    outer loop
      vertex -8.55684 -9.11211 -61
      vertex -9.11211 -8.55684 61
      vertex -9.11211 -8.55684 -61
    endloop
  endfacet
  facet normal -0.707107 -0.707107 0
    outer loop
      vertex -9.11211 -8.55684 61
      vertex -8.55684 -9.11211 -61
      vertex -8.55684 -9.11211 61
    endloop
  endfacet
  facet normal -0.960293 -0.278992 0
    outer loop
      vertex -11.8882 -3.86271 -61
      vertex -12.1073 -3.10862 61
      vertex -12.1073 -3.10862 -61
    endloop
  endfacet
  facet normal -0.960293 -0.278992 0
    outer loop
      vertex -12.1073 -3.10862 61
      vertex -11.8882 -3.86271 -61
      vertex -11.8882 -3.86271 61
    endloop
  endfacet
  facet normal 0.612907 -0.790155 0
    outer loop
      vertex 7.34731 -10.1127 -61
      vertex 7.9678 -9.63142 61
      vertex 7.34731 -10.1127 61
    endloop
  endfacet
  facet normal 0.612907 -0.790155 0
    outer loop
      vertex 7.9678 -9.63142 61
      vertex 7.34731 -10.1127 -61
      vertex 7.9678 -9.63142 -61
    endloop
  endfacet
  facet normal -0.0314119 -0.999507 0
    outer loop
      vertex -0.784881 -12.4753 -61
      vertex 0 -12.5 61
      vertex -0.784881 -12.4753 61
    endloop
  endfacet
  facet normal -0.0314119 -0.999507 -0
    outer loop
      vertex 0 -12.5 61
      vertex -0.784881 -12.4753 -61
      vertex 0 -12.5 -61
    endloop
  endfacet
  facet normal -0.397148 -0.917755 0
    outer loop
      vertex -5.32224 -11.3103 -61
      vertex -4.60156 -11.6222 61
      vertex -5.32224 -11.3103 61
    endloop
  endfacet
  facet normal -0.397148 -0.917755 -0
    outer loop
      vertex -4.60156 -11.6222 61
      vertex -5.32224 -11.3103 -61
      vertex -4.60156 -11.6222 -61
    endloop
  endfacet
  facet normal -0.562083 -0.827081 0
    outer loop
      vertex -7.34731 -10.1127 -61
      vertex -6.69783 -10.5541 61
      vertex -7.34731 -10.1127 61
    endloop
  endfacet
  facet normal -0.562083 -0.827081 -0
    outer loop
      vertex -6.69783 -10.5541 61
      vertex -7.34731 -10.1127 -61
      vertex -6.69783 -10.5541 -61
    endloop
  endfacet
  facet normal -0.995562 -0.0941082 0
    outer loop
      vertex -12.4014 -1.56666 -61
      vertex -12.4753 -0.784881 61
      vertex -12.4753 -0.784881 -61
    endloop
  endfacet
  facet normal -0.995562 -0.0941082 0
    outer loop
      vertex -12.4753 -0.784881 61
      vertex -12.4014 -1.56666 -61
      vertex -12.4014 -1.56666 61
    endloop
  endfacet
  facet normal -0.975917 -0.218143 0
    outer loop
      vertex -12.1073 -3.10862 -61
      vertex -12.2786 -2.34227 61
      vertex -12.2786 -2.34227 -61
    endloop
  endfacet
  facet normal -0.975917 -0.218143 0
    outer loop
      vertex -12.2786 -2.34227 61
      vertex -12.1073 -3.10862 -61
      vertex -12.1073 -3.10862 61
    endloop
  endfacet
  facet normal -0.987688 -0.156434 0
    outer loop
      vertex -12.2786 -2.34227 -61
      vertex -12.4014 -1.56666 61
      vertex -12.4014 -1.56666 -61
    endloop
  endfacet
  facet normal -0.987688 -0.156434 0
    outer loop
      vertex -12.4014 -1.56666 61
      vertex -12.2786 -2.34227 -61
      vertex -12.2786 -2.34227 61
    endloop
  endfacet
  facet normal -0.827081 -0.562083 0
    outer loop
      vertex -10.1127 -7.34731 -61
      vertex -10.5541 -6.69783 61
      vertex -10.5541 -6.69783 -61
    endloop
  endfacet
  facet normal -0.827081 -0.562083 0
    outer loop
      vertex -10.5541 -6.69783 61
      vertex -10.1127 -7.34731 -61
      vertex -10.1127 -7.34731 61
    endloop
  endfacet
  facet normal -0.917755 -0.397148 0
    outer loop
      vertex -11.3103 -5.32224 -61
      vertex -11.6222 -4.60156 61
      vertex -11.6222 -4.60156 -61
    endloop
  endfacet
  facet normal -0.917755 -0.397148 0
    outer loop
      vertex -11.6222 -4.60156 61
      vertex -11.3103 -5.32224 -61
      vertex -11.3103 -5.32224 61
    endloop
  endfacet
  facet normal 0.0314119 -0.999507 0
    outer loop
      vertex 0 -12.5 -61
      vertex 0.784881 -12.4753 61
      vertex 0 -12.5 61
    endloop
  endfacet
  facet normal 0.0314119 -0.999507 0
    outer loop
      vertex 0.784881 -12.4753 61
      vertex 0 -12.5 -61
      vertex 0.784881 -12.4753 -61
    endloop
  endfacet
  facet normal 0.940881 -0.338737 0
    outer loop
      vertex 11.6222 -4.60156 61
      vertex 11.8882 -3.86271 -61
      vertex 11.8882 -3.86271 61
    endloop
  endfacet
  facet normal 0.940881 -0.338737 0
    outer loop
      vertex 11.8882 -3.86271 -61
      vertex 11.6222 -4.60156 61
      vertex 11.6222 -4.60156 -61
    endloop
  endfacet
  facet normal 0.975917 -0.218143 0
    outer loop
      vertex 12.1073 -3.10862 61
      vertex 12.2786 -2.34227 -61
      vertex 12.2786 -2.34227 61
    endloop
  endfacet
  facet normal 0.975917 -0.218143 0
    outer loop
      vertex 12.2786 -2.34227 -61
      vertex 12.1073 -3.10862 61
      vertex 12.1073 -3.10862 -61
    endloop
  endfacet
  facet normal 0.0941082 -0.995562 0
    outer loop
      vertex 0.784881 -12.4753 -61
      vertex 1.56666 -12.4014 61
      vertex 0.784881 -12.4753 61
    endloop
  endfacet
  facet normal 0.0941082 -0.995562 0
    outer loop
      vertex 1.56666 -12.4014 61
      vertex 0.784881 -12.4753 -61
      vertex 1.56666 -12.4014 -61
    endloop
  endfacet
  facet normal 0.156434 -0.987688 0
    outer loop
      vertex 1.56666 -12.4014 -61
      vertex 2.34227 -12.2786 61
      vertex 1.56666 -12.4014 61
    endloop
  endfacet
  facet normal 0.156434 -0.987688 0
    outer loop
      vertex 2.34227 -12.2786 61
      vertex 1.56666 -12.4014 -61
      vertex 2.34227 -12.2786 -61
    endloop
  endfacet
  facet normal 0.338737 -0.940881 0
    outer loop
      vertex 3.86271 -11.8882 -61
      vertex 4.60156 -11.6222 61
      vertex 3.86271 -11.8882 61
    endloop
  endfacet
  facet normal 0.338737 -0.940881 0
    outer loop
      vertex 4.60156 -11.6222 61
      vertex 3.86271 -11.8882 -61
      vertex 4.60156 -11.6222 -61
    endloop
  endfacet
  facet normal 0.397148 -0.917755 0
    outer loop
      vertex 4.60156 -11.6222 -61
      vertex 5.32224 -11.3103 61
      vertex 4.60156 -11.6222 61
    endloop
  endfacet
  facet normal 0.397148 -0.917755 0
    outer loop
      vertex 5.32224 -11.3103 61
      vertex 4.60156 -11.6222 -61
      vertex 5.32224 -11.3103 -61
    endloop
  endfacet
  facet normal 0.278992 -0.960293 0
    outer loop
      vertex 3.10862 -12.1073 -61
      vertex 3.86271 -11.8882 61
      vertex 3.10862 -12.1073 61
    endloop
  endfacet
  facet normal 0.278992 -0.960293 0
    outer loop
      vertex 3.86271 -11.8882 61
      vertex 3.10862 -12.1073 -61
      vertex 3.86271 -11.8882 -61
    endloop
  endfacet
  facet normal 0.707107 -0.707107 0
    outer loop
      vertex 8.55684 -9.11211 61
      vertex 9.11211 -8.55684 -61
      vertex 9.11211 -8.55684 61
    endloop
  endfacet
  facet normal 0.707107 -0.707107 0
    outer loop
      vertex 9.11211 -8.55684 -61
      vertex 8.55684 -9.11211 61
      vertex 8.55684 -9.11211 -61
    endloop
  endfacet
  facet normal 0.661312 -0.750111 0
    outer loop
      vertex 7.9678 -9.63142 -61
      vertex 8.55684 -9.11211 61
      vertex 7.9678 -9.63142 61
    endloop
  endfacet
  facet normal 0.661312 -0.750111 0
    outer loop
      vertex 8.55684 -9.11211 61
      vertex 7.9678 -9.63142 -61
      vertex 8.55684 -9.11211 -61
    endloop
  endfacet
  facet normal 0.562083 -0.827081 0
    outer loop
      vertex 6.69783 -10.5541 -61
      vertex 7.34731 -10.1127 61
      vertex 6.69783 -10.5541 61
    endloop
  endfacet
  facet normal 0.562083 -0.827081 0
    outer loop
      vertex 7.34731 -10.1127 61
      vertex 6.69783 -10.5541 -61
      vertex 7.34731 -10.1127 -61
    endloop
  endfacet
  facet normal 0.453991 -0.891006 0
    outer loop
      vertex 5.32224 -11.3103 -61
      vertex 6.02192 -10.9538 61
      vertex 5.32224 -11.3103 61
    endloop
  endfacet
  facet normal 0.453991 -0.891006 0
    outer loop
      vertex 6.02192 -10.9538 61
      vertex 5.32224 -11.3103 -61
      vertex 6.02192 -10.9538 -61
    endloop
  endfacet
  facet normal 0.891006 -0.453991 0
    outer loop
      vertex 10.9538 -6.02192 61
      vertex 11.3103 -5.32224 -61
      vertex 11.3103 -5.32224 61
    endloop
  endfacet
  facet normal 0.891006 -0.453991 0
    outer loop
      vertex 11.3103 -5.32224 -61
      vertex 10.9538 -6.02192 61
      vertex 10.9538 -6.02192 -61
    endloop
  endfacet
  facet normal 0.860742 -0.509042 0
    outer loop
      vertex 10.5541 -6.69783 61
      vertex 10.9538 -6.02192 -61
      vertex 10.9538 -6.02192 61
    endloop
  endfacet
  facet normal 0.860742 -0.509042 0
    outer loop
      vertex 10.9538 -6.02192 -61
      vertex 10.5541 -6.69783 61
      vertex 10.5541 -6.69783 -61
    endloop
  endfacet
  facet normal 0.917755 -0.397148 0
    outer loop
      vertex 11.3103 -5.32224 61
      vertex 11.6222 -4.60156 -61
      vertex 11.6222 -4.60156 61
    endloop
  endfacet
  facet normal 0.917755 -0.397148 0
    outer loop
      vertex 11.6222 -4.60156 -61
      vertex 11.3103 -5.32224 61
      vertex 11.3103 -5.32224 -61
    endloop
  endfacet
  facet normal 0.790155 -0.612907 0
    outer loop
      vertex 9.63142 -7.9678 61
      vertex 10.1127 -7.34731 -61
      vertex 10.1127 -7.34731 61
    endloop
  endfacet
  facet normal 0.790155 -0.612907 0
    outer loop
      vertex 10.1127 -7.34731 -61
      vertex 9.63142 -7.9678 61
      vertex 9.63142 -7.9678 -61
    endloop
  endfacet
  facet normal 0.827081 -0.562083 0
    outer loop
      vertex 10.1127 -7.34731 61
      vertex 10.5541 -6.69783 -61
      vertex 10.5541 -6.69783 61
    endloop
  endfacet
  facet normal 0.827081 -0.562083 0
    outer loop
      vertex 10.5541 -6.69783 -61
      vertex 10.1127 -7.34731 61
      vertex 10.1127 -7.34731 -61
    endloop
  endfacet
  facet normal -0.156434 -0.987688 0
    outer loop
      vertex -2.34227 -12.2786 -61
      vertex -1.56666 -12.4014 61
      vertex -2.34227 -12.2786 61
    endloop
  endfacet
  facet normal -0.156434 -0.987688 -0
    outer loop
      vertex -1.56666 -12.4014 61
      vertex -2.34227 -12.2786 -61
      vertex -1.56666 -12.4014 -61
    endloop
  endfacet
  facet normal -0.218143 -0.975917 0
    outer loop
      vertex -3.10862 -12.1073 -61
      vertex -2.34227 -12.2786 61
      vertex -3.10862 -12.1073 61
    endloop
  endfacet
  facet normal -0.218143 -0.975917 -0
    outer loop
      vertex -2.34227 -12.2786 61
      vertex -3.10862 -12.1073 -61
      vertex -2.34227 -12.2786 -61
    endloop
  endfacet
  facet normal -0.0941082 -0.995562 0
    outer loop
      vertex -1.56666 -12.4014 -61
      vertex -0.784881 -12.4753 61
      vertex -1.56666 -12.4014 61
    endloop
  endfacet
  facet normal -0.0941082 -0.995562 -0
    outer loop
      vertex -0.784881 -12.4753 61
      vertex -1.56666 -12.4014 -61
      vertex -0.784881 -12.4753 -61
    endloop
  endfacet
  facet normal -0.338737 -0.940881 0
    outer loop
      vertex -4.60156 -11.6222 -61
      vertex -3.86271 -11.8882 61
      vertex -4.60156 -11.6222 61
    endloop
  endfacet
  facet normal -0.338737 -0.940881 -0
    outer loop
      vertex -3.86271 -11.8882 61
      vertex -4.60156 -11.6222 -61
      vertex -3.86271 -11.8882 -61
    endloop
  endfacet
  facet normal -0.509042 -0.860742 0
    outer loop
      vertex -6.69783 -10.5541 -61
      vertex -6.02192 -10.9538 61
      vertex -6.69783 -10.5541 61
    endloop
  endfacet
  facet normal -0.509042 -0.860742 -0
    outer loop
      vertex -6.02192 -10.9538 61
      vertex -6.69783 -10.5541 -61
      vertex -6.02192 -10.9538 -61
    endloop
  endfacet
  facet normal -0.612907 -0.790155 0
    outer loop
      vertex -7.9678 -9.63142 -61
      vertex -7.34731 -10.1127 61
      vertex -7.9678 -9.63142 61
    endloop
  endfacet
  facet normal -0.612907 -0.790155 -0
    outer loop
      vertex -7.34731 -10.1127 61
      vertex -7.9678 -9.63142 -61
      vertex -7.34731 -10.1127 -61
    endloop
  endfacet
  facet normal -0.999507 -0.0314119 0
    outer loop
      vertex -12.4753 -0.784881 -61
      vertex -12.5 0 61
      vertex -12.5 0 -61
    endloop
  endfacet
  facet normal -0.999507 -0.0314119 0
    outer loop
      vertex -12.5 0 61
      vertex -12.4753 -0.784881 -61
      vertex -12.4753 -0.784881 61
    endloop
  endfacet
  facet normal 0 0 -1
    outer loop
      vertex 9.48125 -0.59651 -61
      vertex 12.4753 -0.784881 -61
      vertex 12.4014 -1.56666 -61
    endloop
  endfacet
  facet normal 0 0 -1
    outer loop
      vertex 9.42509 -1.19067 -61
      vertex 12.4014 -1.56666 -61
      vertex 12.2786 -2.34227 -61
    endloop
  endfacet
  facet normal 0 0 -1
    outer loop
      vertex 9.33173 -1.78012 -61
      vertex 12.2786 -2.34227 -61
      vertex 12.1073 -3.10862 -61
    endloop
  endfacet
  facet normal 0 0 -1
    outer loop
      vertex 9.20154 -2.36255 -61
      vertex 12.1073 -3.10862 -61
      vertex 11.8882 -3.86271 -61
    endloop
  endfacet
  facet normal 0 0 -1
    outer loop
      vertex 9.03504 -2.93566 -61
      vertex 11.8882 -3.86271 -61
      vertex 11.6222 -4.60156 -61
    endloop
  endfacet
  facet normal 0 0 -1
    outer loop
      vertex 8.83288 -3.49718 -61
      vertex 11.6222 -4.60156 -61
      vertex 11.3103 -5.32224 -61
    endloop
  endfacet
  facet normal 0 0 -1
    outer loop
      vertex 8.59586 -4.0449 -61
      vertex 11.3103 -5.32224 -61
      vertex 10.9538 -6.02192 -61
    endloop
  endfacet
  facet normal 0 0 -1
    outer loop
      vertex 8.32491 -4.57666 -61
      vertex 10.9538 -6.02192 -61
      vertex 10.5541 -6.69783 -61
    endloop
  endfacet
  facet normal 0 0 -1
    outer loop
      vertex 8.02111 -5.09035 -61
      vertex 10.5541 -6.69783 -61
      vertex 10.1127 -7.34731 -61
    endloop
  endfacet
  facet normal 0 0 -1
    outer loop
      vertex 7.68566 -5.58396 -61
      vertex 10.1127 -7.34731 -61
      vertex 9.63142 -7.9678 -61
    endloop
  endfacet
  facet normal 0 0 -1
    outer loop
      vertex 11.8882 -3.86271 -61
      vertex 9.03504 -2.93566 -61
      vertex 9.20154 -2.36255 -61
    endloop
  endfacet
  facet normal -0 0 -1
    outer loop
      vertex 12.5 0 -61
      vertex 9.48125 -0.59651 -61
      vertex 9.5 0 -61
    endloop
  endfacet
  facet normal 0 0 -1
    outer loop
      vertex 12.4753 -0.784881 -61
      vertex 9.48125 -0.59651 -61
      vertex 12.5 0 -61
    endloop
  endfacet
  facet normal 0 -0 -1
    outer loop
      vertex 9.48125 -0.59651 -61
      vertex 12.4014 -1.56666 -61
      vertex 9.42509 -1.19067 -61
    endloop
  endfacet
  facet normal 0 0 -1
    outer loop
      vertex 12.2786 -2.34227 -61
      vertex 9.33173 -1.78012 -61
      vertex 9.42509 -1.19067 -61
    endloop
  endfacet
  facet normal 0 0 -1
    outer loop
      vertex 7.31988 -6.05553 -61
      vertex 9.63142 -7.9678 -61
      vertex 9.11211 -8.55684 -61
    endloop
  endfacet
  facet normal 0 0 -1
    outer loop
      vertex 12.1073 -3.10862 -61
      vertex 9.20154 -2.36255 -61
      vertex 9.33173 -1.78012 -61
    endloop
  endfacet
  facet normal 0 0 -1
    outer loop
      vertex 11.6222 -4.60156 -61
      vertex 8.83288 -3.49718 -61
      vertex 9.03504 -2.93566 -61
    endloop
  endfacet
  facet normal 0 0 -1
    outer loop
      vertex 11.3103 -5.32224 -61
      vertex 8.59586 -4.0449 -61
      vertex 8.83288 -3.49718 -61
    endloop
  endfacet
  facet normal 0 0 -1
    outer loop
      vertex 6.9252 -6.5032 -61
      vertex 9.11211 -8.55684 -61
      vertex 8.55684 -9.11211 -61
    endloop
  endfacet
  facet normal 0 0 -1
    outer loop
      vertex 10.9538 -6.02192 -61
      vertex 8.32491 -4.57666 -61
      vertex 8.59586 -4.0449 -61
    endloop
  endfacet
  facet normal 0 0 -1
    outer loop
      vertex 10.5541 -6.69783 -61
      vertex 8.02111 -5.09035 -61
      vertex 8.32491 -4.57666 -61
    endloop
  endfacet
  facet normal 0 0 -1
    outer loop
      vertex 6.5032 -6.9252 -61
      vertex 8.55684 -9.11211 -61
      vertex 7.9678 -9.63142 -61
    endloop
  endfacet
  facet normal 0 0 -1
    outer loop
      vertex 10.1127 -7.34731 -61
      vertex 7.68566 -5.58396 -61
      vertex 8.02111 -5.09035 -61
    endloop
  endfacet
  facet normal 0 0 -1
    outer loop
      vertex 6.05553 -7.31988 -61
      vertex 7.9678 -9.63142 -61
      vertex 7.34731 -10.1127 -61
    endloop
  endfacet
  facet normal 0 0 -1
    outer loop
      vertex 9.63142 -7.9678 -61
      vertex 7.31988 -6.05553 -61
      vertex 7.68566 -5.58396 -61
    endloop
  endfacet
  facet normal 0 0 -1
    outer loop
      vertex 9.11211 -8.55684 -61
      vertex 6.9252 -6.5032 -61
      vertex 7.31988 -6.05553 -61
    endloop
  endfacet
  facet normal 0 0 -1
    outer loop
      vertex 5.58396 -7.68566 -61
      vertex 7.34731 -10.1127 -61
      vertex 6.69783 -10.5541 -61
    endloop
  endfacet
  facet normal 0 0 -1
    outer loop
      vertex 8.55684 -9.11211 -61
      vertex 6.5032 -6.9252 -61
      vertex 6.9252 -6.5032 -61
    endloop
  endfacet
  facet normal 0 0 -1
    outer loop
      vertex 7.9678 -9.63142 -61
      vertex 6.05553 -7.31988 -61
      vertex 6.5032 -6.9252 -61
    endloop
  endfacet
  facet normal 0 0 -1
    outer loop
      vertex 5.09035 -8.02111 -61
      vertex 6.69783 -10.5541 -61
      vertex 6.02192 -10.9538 -61
    endloop
  endfacet
  facet normal 0 0 -1
    outer loop
      vertex 7.34731 -10.1127 -61
      vertex 5.58396 -7.68566 -61
      vertex 6.05553 -7.31988 -61
    endloop
  endfacet
  facet normal 0 0 -1
    outer loop
      vertex 4.57666 -8.32491 -61
      vertex 6.02192 -10.9538 -61
      vertex 5.32224 -11.3103 -61
    endloop
  endfacet
  facet normal 0 0 -1
    outer loop
      vertex 6.69783 -10.5541 -61
      vertex 5.09035 -8.02111 -61
      vertex 5.58396 -7.68566 -61
    endloop
  endfacet
  facet normal 0 0 -1
    outer loop
      vertex 4.0449 -8.59586 -61
      vertex 5.32224 -11.3103 -61
      vertex 4.60156 -11.6222 -61
    endloop
  endfacet
  facet normal 0 0 -1
    outer loop
      vertex 6.02192 -10.9538 -61
      vertex 4.57666 -8.32491 -61
      vertex 5.09035 -8.02111 -61
    endloop
  endfacet
  facet normal 0 0 -1
    outer loop
      vertex 5.32224 -11.3103 -61
      vertex 4.0449 -8.59586 -61
      vertex 4.57666 -8.32491 -61
    endloop
  endfacet
  facet normal 0 0 -1
    outer loop
      vertex 3.49718 -8.83288 -61
      vertex 4.60156 -11.6222 -61
      vertex 3.86271 -11.8882 -61
    endloop
  endfacet
  facet normal 0 0 -1
    outer loop
      vertex 4.60156 -11.6222 -61
      vertex 3.49718 -8.83288 -61
      vertex 4.0449 -8.59586 -61
    endloop
  endfacet
  facet normal 0 0 -1
    outer loop
      vertex 2.93566 -9.03504 -61
      vertex 3.86271 -11.8882 -61
      vertex 3.10862 -12.1073 -61
    endloop
  endfacet
  facet normal 0 0 -1
    outer loop
      vertex 3.86271 -11.8882 -61
      vertex 2.93566 -9.03504 -61
      vertex 3.49718 -8.83288 -61
    endloop
  endfacet
  facet normal 0 0 -1
    outer loop
      vertex 3.10862 -12.1073 -61
      vertex 2.36255 -9.20154 -61
      vertex 2.93566 -9.03504 -61
    endloop
  endfacet
  facet normal 0 0 -1
    outer loop
      vertex 2.34227 -12.2786 -61
      vertex 2.36255 -9.20154 -61
      vertex 3.10862 -12.1073 -61
    endloop
  endfacet
  facet normal 0 0 -1
    outer loop
      vertex 2.34227 -12.2786 -61
      vertex 1.78012 -9.33173 -61
      vertex 2.36255 -9.20154 -61
    endloop
  endfacet
  facet normal 0 0 -1
    outer loop
      vertex 1.56666 -12.4014 -61
      vertex 1.78012 -9.33173 -61
      vertex 2.34227 -12.2786 -61
    endloop
  endfacet
  facet normal 0 0 -1
    outer loop
      vertex 1.56666 -12.4014 -61
      vertex 1.19067 -9.42509 -61
      vertex 1.78012 -9.33173 -61
    endloop
  endfacet
  facet normal 0 0 -1
    outer loop
      vertex 0.784881 -12.4753 -61
      vertex 1.19067 -9.42509 -61
      vertex 1.56666 -12.4014 -61
    endloop
  endfacet
  facet normal 0 0 -1
    outer loop
      vertex 0.784881 -12.4753 -61
      vertex 0.59651 -9.48125 -61
      vertex 1.19067 -9.42509 -61
    endloop
  endfacet
  facet normal 0 0 -1
    outer loop
      vertex 0 -12.5 -61
      vertex 0.59651 -9.48125 -61
      vertex 0.784881 -12.4753 -61
    endloop
  endfacet
  facet normal 0 0 -1
    outer loop
      vertex 0 -12.5 -61
      vertex 0 -9.5 -61
      vertex 0.59651 -9.48125 -61
    endloop
  endfacet
  facet normal 0 0 -1
    outer loop
      vertex 0 -12.5 -61
      vertex -0.59651 -9.48125 -61
      vertex 0 -9.5 -61
    endloop
  endfacet
  facet normal 0 0 -1
    outer loop
      vertex -0.784881 -12.4753 -61
      vertex -0.59651 -9.48125 -61
      vertex 0 -12.5 -61
    endloop
  endfacet
  facet normal 0 0 -1
    outer loop
      vertex -0.784881 -12.4753 -61
      vertex -1.19067 -9.42509 -61
      vertex -0.59651 -9.48125 -61
    endloop
  endfacet
  facet normal 0 0 -1
    outer loop
      vertex -1.56666 -12.4014 -61
      vertex -1.19067 -9.42509 -61
      vertex -0.784881 -12.4753 -61
    endloop
  endfacet
  facet normal 0 0 -1
    outer loop
      vertex -1.56666 -12.4014 -61
      vertex -1.78012 -9.33173 -61
      vertex -1.19067 -9.42509 -61
    endloop
  endfacet
  facet normal 0 0 -1
    outer loop
      vertex -2.34227 -12.2786 -61
      vertex -1.78012 -9.33173 -61
      vertex -1.56666 -12.4014 -61
    endloop
  endfacet
  facet normal 0 0 -1
    outer loop
      vertex -2.34227 -12.2786 -61
      vertex -2.36255 -9.20154 -61
      vertex -1.78012 -9.33173 -61
    endloop
  endfacet
  facet normal 0 0 -1
    outer loop
      vertex -3.10862 -12.1073 -61
      vertex -2.36255 -9.20154 -61
      vertex -2.34227 -12.2786 -61
    endloop
  endfacet
  facet normal -0 0 -1
    outer loop
      vertex -2.36255 -9.20154 -61
      vertex -3.10862 -12.1073 -61
      vertex -2.93566 -9.03504 -61
    endloop
  endfacet
  facet normal 0 0 -1
    outer loop
      vertex -3.86271 -11.8882 -61
      vertex -2.93566 -9.03504 -61
      vertex -3.10862 -12.1073 -61
    endloop
  endfacet
  facet normal -0 0 -1
    outer loop
      vertex -2.93566 -9.03504 -61
      vertex -3.86271 -11.8882 -61
      vertex -3.49718 -8.83288 -61
    endloop
  endfacet
  facet normal 0 0 -1
    outer loop
      vertex -4.60156 -11.6222 -61
      vertex -3.49718 -8.83288 -61
      vertex -3.86271 -11.8882 -61
    endloop
  endfacet
  facet normal -0 0 -1
    outer loop
      vertex -3.49718 -8.83288 -61
      vertex -4.60156 -11.6222 -61
      vertex -4.0449 -8.59586 -61
    endloop
  endfacet
  facet normal 0 0 -1
    outer loop
      vertex -5.32224 -11.3103 -61
      vertex -4.0449 -8.59586 -61
      vertex -4.60156 -11.6222 -61
    endloop
  endfacet
  facet normal -0 0 -1
    outer loop
      vertex -4.0449 -8.59586 -61
      vertex -5.32224 -11.3103 -61
      vertex -4.57666 -8.32491 -61
    endloop
  endfacet
  facet normal 0 0 -1
    outer loop
      vertex -6.02192 -10.9538 -61
      vertex -4.57666 -8.32491 -61
      vertex -5.32224 -11.3103 -61
    endloop
  endfacet
  facet normal -0 0 -1
    outer loop
      vertex -4.57666 -8.32491 -61
      vertex -6.02192 -10.9538 -61
      vertex -5.09035 -8.02111 -61
    endloop
  endfacet
  facet normal 0 0 -1
    outer loop
      vertex -6.69783 -10.5541 -61
      vertex -5.09035 -8.02111 -61
      vertex -6.02192 -10.9538 -61
    endloop
  endfacet
  facet normal -0 0 -1
    outer loop
      vertex -5.09035 -8.02111 -61
      vertex -6.69783 -10.5541 -61
      vertex -5.58396 -7.68566 -61
    endloop
  endfacet
  facet normal 0 0 -1
    outer loop
      vertex -7.34731 -10.1127 -61
      vertex -5.58396 -7.68566 -61
      vertex -6.69783 -10.5541 -61
    endloop
  endfacet
  facet normal -0 0 -1
    outer loop
      vertex -5.58396 -7.68566 -61
      vertex -7.34731 -10.1127 -61
      vertex -6.05553 -7.31988 -61
    endloop
  endfacet
  facet normal 0 0 -1
    outer loop
      vertex -7.9678 -9.63142 -61
      vertex -6.05553 -7.31988 -61
      vertex -7.34731 -10.1127 -61
    endloop
  endfacet
  facet normal -0 0 -1
    outer loop
      vertex -6.05553 -7.31988 -61
      vertex -7.9678 -9.63142 -61
      vertex -6.5032 -6.9252 -61
    endloop
  endfacet
  facet normal 0 0 -1
    outer loop
      vertex -8.55684 -9.11211 -61
      vertex -6.5032 -6.9252 -61
      vertex -7.9678 -9.63142 -61
    endloop
  endfacet
  facet normal -0 0 -1
    outer loop
      vertex -6.5032 -6.9252 -61
      vertex -8.55684 -9.11211 -61
      vertex -6.9252 -6.5032 -61
    endloop
  endfacet
  facet normal 0 0 -1
    outer loop
      vertex -9.11211 -8.55684 -61
      vertex -6.9252 -6.5032 -61
      vertex -8.55684 -9.11211 -61
    endloop
  endfacet
  facet normal -0 0 -1
    outer loop
      vertex -6.9252 -6.5032 -61
      vertex -9.11211 -8.55684 -61
      vertex -7.31988 -6.05553 -61
    endloop
  endfacet
  facet normal 0 0 -1
    outer loop
      vertex -9.63142 -7.9678 -61
      vertex -7.31988 -6.05553 -61
      vertex -9.11211 -8.55684 -61
    endloop
  endfacet
  facet normal -0 0 -1
    outer loop
      vertex -7.31988 -6.05553 -61
      vertex -9.63142 -7.9678 -61
      vertex -7.68566 -5.58396 -61
    endloop
  endfacet
  facet normal 0 0 -1
    outer loop
      vertex -10.1127 -7.34731 -61
      vertex -7.68566 -5.58396 -61
      vertex -9.63142 -7.9678 -61
    endloop
  endfacet
  facet normal -0 0 -1
    outer loop
      vertex -7.68566 -5.58396 -61
      vertex -10.1127 -7.34731 -61
      vertex -8.02111 -5.09035 -61
    endloop
  endfacet
  facet normal 0 0 -1
    outer loop
      vertex -10.5541 -6.69783 -61
      vertex -8.02111 -5.09035 -61
      vertex -10.1127 -7.34731 -61
    endloop
  endfacet
  facet normal -0 0 -1
    outer loop
      vertex -8.02111 -5.09035 -61
      vertex -10.5541 -6.69783 -61
      vertex -8.32491 -4.57666 -61
    endloop
  endfacet
  facet normal 0 0 -1
    outer loop
      vertex -10.9538 -6.02192 -61
      vertex -8.32491 -4.57666 -61
      vertex -10.5541 -6.69783 -61
    endloop
  endfacet
  facet normal -0 0 -1
    outer loop
      vertex -8.32491 -4.57666 -61
      vertex -10.9538 -6.02192 -61
      vertex -8.59586 -4.0449 -61
    endloop
  endfacet
  facet normal 0 0 -1
    outer loop
      vertex -11.3103 -5.32224 -61
      vertex -8.59586 -4.0449 -61
      vertex -10.9538 -6.02192 -61
    endloop
  endfacet
  facet normal -0 0 -1
    outer loop
      vertex -8.59586 -4.0449 -61
      vertex -11.3103 -5.32224 -61
      vertex -8.83288 -3.49718 -61
    endloop
  endfacet
  facet normal 0 0 -1
    outer loop
      vertex -11.6222 -4.60156 -61
      vertex -8.83288 -3.49718 -61
      vertex -11.3103 -5.32224 -61
    endloop
  endfacet
  facet normal -0 0 -1
    outer loop
      vertex -8.83288 -3.49718 -61
      vertex -11.6222 -4.60156 -61
      vertex -9.03504 -2.93566 -61
    endloop
  endfacet
  facet normal 0 0 -1
    outer loop
      vertex -11.8882 -3.86271 -61
      vertex -9.03504 -2.93566 -61
      vertex -11.6222 -4.60156 -61
    endloop
  endfacet
  facet normal -0 0 -1
    outer loop
      vertex -9.03504 -2.93566 -61
      vertex -11.8882 -3.86271 -61
      vertex -9.20154 -2.36255 -61
    endloop
  endfacet
  facet normal 0 0 -1
    outer loop
      vertex -12.1073 -3.10862 -61
      vertex -9.20154 -2.36255 -61
      vertex -11.8882 -3.86271 -61
    endloop
  endfacet
  facet normal -0 0 -1
    outer loop
      vertex -9.20154 -2.36255 -61
      vertex -12.1073 -3.10862 -61
      vertex -9.33173 -1.78012 -61
    endloop
  endfacet
  facet normal 0 0 -1
    outer loop
      vertex -12.2786 -2.34227 -61
      vertex -9.33173 -1.78012 -61
      vertex -12.1073 -3.10862 -61
    endloop
  endfacet
  facet normal -0 0 -1
    outer loop
      vertex -9.33173 -1.78012 -61
      vertex -12.2786 -2.34227 -61
      vertex -9.42509 -1.19067 -61
    endloop
  endfacet
  facet normal 0 0 -1
    outer loop
      vertex -12.4014 -1.56666 -61
      vertex -9.42509 -1.19067 -61
      vertex -12.2786 -2.34227 -61
    endloop
  endfacet
  facet normal -0 0 -1
    outer loop
      vertex -9.42509 -1.19067 -61
      vertex -12.4014 -1.56666 -61
      vertex -9.48125 -0.59651 -61
    endloop
  endfacet
  facet normal 0 0 -1
    outer loop
      vertex -12.4753 -0.784881 -61
      vertex -9.48125 -0.59651 -61
      vertex -12.4014 -1.56666 -61
    endloop
  endfacet
  facet normal -0 0 -1
    outer loop
      vertex -9.48125 -0.59651 -61
      vertex -12.4753 -0.784881 -61
      vertex -9.5 0 -61
    endloop
  endfacet
  facet normal -0 0 -1
    outer loop
      vertex -9.5 0 -61
      vertex -12.4753 -0.784881 -61
      vertex -12.5 0 -61
    endloop
  endfacet
  facet normal -0.891006 -0.453991 0
    outer loop
      vertex -10.9538 -6.02192 -61
      vertex -11.3103 -5.32224 61
      vertex -11.3103 -5.32224 -61
    endloop
  endfacet
  facet normal -0.891006 -0.453991 0
    outer loop
      vertex -11.3103 -5.32224 61
      vertex -10.9538 -6.02192 -61
      vertex -10.9538 -6.02192 61
    endloop
  endfacet
  facet normal -0.750111 -0.661312 0
    outer loop
      vertex -9.11211 -8.55684 -61
      vertex -9.63142 -7.9678 61
      vertex -9.63142 -7.9678 -61
    endloop
  endfacet
  facet normal -0.750111 -0.661312 0
    outer loop
      vertex -9.63142 -7.9678 61
      vertex -9.11211 -8.55684 -61
      vertex -9.11211 -8.55684 61
    endloop
  endfacet
  facet normal -0 0 1
    outer loop
      vertex 9.48125 -0.59651 61
      vertex 12.4753 -0.784881 61
      vertex 12.5 0 61
    endloop
  endfacet
  facet normal 0 0 1
    outer loop
      vertex 12.4753 -0.784881 61
      vertex 9.48125 -0.59651 61
      vertex 12.4014 -1.56666 61
    endloop
  endfacet
  facet normal 0 0 1
    outer loop
      vertex 12.4014 -1.56666 61
      vertex 9.42509 -1.19067 61
      vertex 12.2786 -2.34227 61
    endloop
  endfacet
  facet normal -0 0 1
    outer loop
      vertex 9.33173 -1.78012 61
      vertex 12.2786 -2.34227 61
      vertex 9.42509 -1.19067 61
    endloop
  endfacet
  facet normal -0 0 1
    outer loop
      vertex 9.20154 -2.36255 61
      vertex 12.1073 -3.10862 61
      vertex 9.33173 -1.78012 61
    endloop
  endfacet
  facet normal 0 0 1
    outer loop
      vertex 12.1073 -3.10862 61
      vertex 9.20154 -2.36255 61
      vertex 11.8882 -3.86271 61
    endloop
  endfacet
  facet normal 0 0 1
    outer loop
      vertex 11.8882 -3.86271 61
      vertex 9.03504 -2.93566 61
      vertex 11.6222 -4.60156 61
    endloop
  endfacet
  facet normal -0 0 1
    outer loop
      vertex 8.83288 -3.49718 61
      vertex 11.6222 -4.60156 61
      vertex 9.03504 -2.93566 61
    endloop
  endfacet
  facet normal -0 0 1
    outer loop
      vertex 8.59586 -4.0449 61
      vertex 11.3103 -5.32224 61
      vertex 8.83288 -3.49718 61
    endloop
  endfacet
  facet normal 0 0 1
    outer loop
      vertex 11.3103 -5.32224 61
      vertex 8.59586 -4.0449 61
      vertex 10.9538 -6.02192 61
    endloop
  endfacet
  facet normal 0 0 1
    outer loop
      vertex 9.48125 -0.59651 61
      vertex 12.5 0 61
      vertex 9.5 0 61
    endloop
  endfacet
  facet normal 0 0 1
    outer loop
      vertex 12.4014 -1.56666 61
      vertex 9.48125 -0.59651 61
      vertex 9.42509 -1.19067 61
    endloop
  endfacet
  facet normal 0 0 1
    outer loop
      vertex 12.2786 -2.34227 61
      vertex 9.33173 -1.78012 61
      vertex 12.1073 -3.10862 61
    endloop
  endfacet
  facet normal -0 0 1
    outer loop
      vertex 9.03504 -2.93566 61
      vertex 11.8882 -3.86271 61
      vertex 9.20154 -2.36255 61
    endloop
  endfacet
  facet normal 0 0 1
    outer loop
      vertex 11.6222 -4.60156 61
      vertex 8.83288 -3.49718 61
      vertex 11.3103 -5.32224 61
    endloop
  endfacet
  facet normal -0 0 1
    outer loop
      vertex 8.32491 -4.57666 61
      vertex 10.9538 -6.02192 61
      vertex 8.59586 -4.0449 61
    endloop
  endfacet
  facet normal 0 0 1
    outer loop
      vertex 10.9538 -6.02192 61
      vertex 8.32491 -4.57666 61
      vertex 10.5541 -6.69783 61
    endloop
  endfacet
  facet normal -0 0 1
    outer loop
      vertex 8.02111 -5.09035 61
      vertex 10.5541 -6.69783 61
      vertex 8.32491 -4.57666 61
    endloop
  endfacet
  facet normal 0 0 1
    outer loop
      vertex 10.5541 -6.69783 61
      vertex 8.02111 -5.09035 61
      vertex 10.1127 -7.34731 61
    endloop
  endfacet
  facet normal -0 0 1
    outer loop
      vertex 7.68566 -5.58396 61
      vertex 10.1127 -7.34731 61
      vertex 8.02111 -5.09035 61
    endloop
  endfacet
  facet normal 0 0 1
    outer loop
      vertex 10.1127 -7.34731 61
      vertex 7.68566 -5.58396 61
      vertex 9.63142 -7.9678 61
    endloop
  endfacet
  facet normal -0 0 1
    outer loop
      vertex 7.31988 -6.05553 61
      vertex 9.63142 -7.9678 61
      vertex 7.68566 -5.58396 61
    endloop
  endfacet
  facet normal 0 0 1
    outer loop
      vertex 9.63142 -7.9678 61
      vertex 7.31988 -6.05553 61
      vertex 9.11211 -8.55684 61
    endloop
  endfacet
  facet normal -0 0 1
    outer loop
      vertex 6.9252 -6.5032 61
      vertex 9.11211 -8.55684 61
      vertex 7.31988 -6.05553 61
    endloop
  endfacet
  facet normal 0 0 1
    outer loop
      vertex 9.11211 -8.55684 61
      vertex 6.9252 -6.5032 61
      vertex 8.55684 -9.11211 61
    endloop
  endfacet
  facet normal -0 0 1
    outer loop
      vertex 6.5032 -6.9252 61
      vertex 8.55684 -9.11211 61
      vertex 6.9252 -6.5032 61
    endloop
  endfacet
  facet normal 0 0 1
    outer loop
      vertex 8.55684 -9.11211 61
      vertex 6.5032 -6.9252 61
      vertex 7.9678 -9.63142 61
    endloop
  endfacet
  facet normal -0 0 1
    outer loop
      vertex 6.05553 -7.31988 61
      vertex 7.9678 -9.63142 61
      vertex 6.5032 -6.9252 61
    endloop
  endfacet
  facet normal 0 0 1
    outer loop
      vertex 7.9678 -9.63142 61
      vertex 6.05553 -7.31988 61
      vertex 7.34731 -10.1127 61
    endloop
  endfacet
  facet normal -0 0 1
    outer loop
      vertex 5.58396 -7.68566 61
      vertex 7.34731 -10.1127 61
      vertex 6.05553 -7.31988 61
    endloop
  endfacet
  facet normal 0 0 1
    outer loop
      vertex 7.34731 -10.1127 61
      vertex 5.58396 -7.68566 61
      vertex 6.69783 -10.5541 61
    endloop
  endfacet
  facet normal -0 0 1
    outer loop
      vertex 5.09035 -8.02111 61
      vertex 6.69783 -10.5541 61
      vertex 5.58396 -7.68566 61
    endloop
  endfacet
  facet normal 0 0 1
    outer loop
      vertex 6.69783 -10.5541 61
      vertex 5.09035 -8.02111 61
      vertex 6.02192 -10.9538 61
    endloop
  endfacet
  facet normal -0 0 1
    outer loop
      vertex 4.57666 -8.32491 61
      vertex 6.02192 -10.9538 61
      vertex 5.09035 -8.02111 61
    endloop
  endfacet
  facet normal 0 0 1
    outer loop
      vertex 6.02192 -10.9538 61
      vertex 4.57666 -8.32491 61
      vertex 5.32224 -11.3103 61
    endloop
  endfacet
  facet normal -0 0 1
    outer loop
      vertex 4.0449 -8.59586 61
      vertex 5.32224 -11.3103 61
      vertex 4.57666 -8.32491 61
    endloop
  endfacet
  facet normal 0 0 1
    outer loop
      vertex 5.32224 -11.3103 61
      vertex 4.0449 -8.59586 61
      vertex 4.60156 -11.6222 61
    endloop
  endfacet
  facet normal -0 0 1
    outer loop
      vertex 3.49718 -8.83288 61
      vertex 4.60156 -11.6222 61
      vertex 4.0449 -8.59586 61
    endloop
  endfacet
  facet normal 0 0 1
    outer loop
      vertex 4.60156 -11.6222 61
      vertex 3.49718 -8.83288 61
      vertex 3.86271 -11.8882 61
    endloop
  endfacet
  facet normal -0 0 1
    outer loop
      vertex 2.93566 -9.03504 61
      vertex 3.86271 -11.8882 61
      vertex 3.49718 -8.83288 61
    endloop
  endfacet
  facet normal 0 0 1
    outer loop
      vertex 3.86271 -11.8882 61
      vertex 2.93566 -9.03504 61
      vertex 3.10862 -12.1073 61
    endloop
  endfacet
  facet normal -0 0 1
    outer loop
      vertex 2.36255 -9.20154 61
      vertex 3.10862 -12.1073 61
      vertex 2.93566 -9.03504 61
    endloop
  endfacet
  facet normal 0 0 1
    outer loop
      vertex 2.36255 -9.20154 61
      vertex 2.34227 -12.2786 61
      vertex 3.10862 -12.1073 61
    endloop
  endfacet
  facet normal -0 0 1
    outer loop
      vertex 1.78012 -9.33173 61
      vertex 2.34227 -12.2786 61
      vertex 2.36255 -9.20154 61
    endloop
  endfacet
  facet normal 0 0 1
    outer loop
      vertex 1.78012 -9.33173 61
      vertex 1.56666 -12.4014 61
      vertex 2.34227 -12.2786 61
    endloop
  endfacet
  facet normal -0 0 1
    outer loop
      vertex 1.19067 -9.42509 61
      vertex 1.56666 -12.4014 61
      vertex 1.78012 -9.33173 61
    endloop
  endfacet
  facet normal 0 0 1
    outer loop
      vertex 1.19067 -9.42509 61
      vertex 0.784881 -12.4753 61
      vertex 1.56666 -12.4014 61
    endloop
  endfacet
  facet normal -0 0 1
    outer loop
      vertex 0.59651 -9.48125 61
      vertex 0.784881 -12.4753 61
      vertex 1.19067 -9.42509 61
    endloop
  endfacet
  facet normal -0 0 1
    outer loop
      vertex 0 -9.5 61
      vertex 0.784881 -12.4753 61
      vertex 0.59651 -9.48125 61
    endloop
  endfacet
  facet normal 0 0 1
    outer loop
      vertex 0 -9.5 61
      vertex 0 -12.5 61
      vertex 0.784881 -12.4753 61
    endloop
  endfacet
  facet normal 0 0 1
    outer loop
      vertex -0.59651 -9.48125 61
      vertex 0 -12.5 61
      vertex 0 -9.5 61
    endloop
  endfacet
  facet normal 0 0 1
    outer loop
      vertex -0.59651 -9.48125 61
      vertex -0.784881 -12.4753 61
      vertex 0 -12.5 61
    endloop
  endfacet
  facet normal 0 0 1
    outer loop
      vertex -1.19067 -9.42509 61
      vertex -0.784881 -12.4753 61
      vertex -0.59651 -9.48125 61
    endloop
  endfacet
  facet normal 0 0 1
    outer loop
      vertex -1.19067 -9.42509 61
      vertex -1.56666 -12.4014 61
      vertex -0.784881 -12.4753 61
    endloop
  endfacet
  facet normal 0 0 1
    outer loop
      vertex -1.78012 -9.33173 61
      vertex -1.56666 -12.4014 61
      vertex -1.19067 -9.42509 61
    endloop
  endfacet
  facet normal 0 0 1
    outer loop
      vertex -1.78012 -9.33173 61
      vertex -2.34227 -12.2786 61
      vertex -1.56666 -12.4014 61
    endloop
  endfacet
  facet normal 0 0 1
    outer loop
      vertex -2.36255 -9.20154 61
      vertex -2.34227 -12.2786 61
      vertex -1.78012 -9.33173 61
    endloop
  endfacet
  facet normal 0 0 1
    outer loop
      vertex -3.10862 -12.1073 61
      vertex -2.36255 -9.20154 61
      vertex -2.93566 -9.03504 61
    endloop
  endfacet
  facet normal 0 0 1
    outer loop
      vertex -2.36255 -9.20154 61
      vertex -3.10862 -12.1073 61
      vertex -2.34227 -12.2786 61
    endloop
  endfacet
  facet normal 0 0 1
    outer loop
      vertex -3.86271 -11.8882 61
      vertex -2.93566 -9.03504 61
      vertex -3.49718 -8.83288 61
    endloop
  endfacet
  facet normal 0 0 1
    outer loop
      vertex -2.93566 -9.03504 61
      vertex -3.86271 -11.8882 61
      vertex -3.10862 -12.1073 61
    endloop
  endfacet
  facet normal 0 0 1
    outer loop
      vertex -4.60156 -11.6222 61
      vertex -3.49718 -8.83288 61
      vertex -4.0449 -8.59586 61
    endloop
  endfacet
  facet normal 0 0 1
    outer loop
      vertex -5.32224 -11.3103 61
      vertex -4.0449 -8.59586 61
      vertex -4.57666 -8.32491 61
    endloop
  endfacet
  facet normal 0 0 1
    outer loop
      vertex -3.49718 -8.83288 61
      vertex -4.60156 -11.6222 61
      vertex -3.86271 -11.8882 61
    endloop
  endfacet
  facet normal 0 0 1
    outer loop
      vertex -6.02192 -10.9538 61
      vertex -4.57666 -8.32491 61
      vertex -5.09035 -8.02111 61
    endloop
  endfacet
  facet normal 0 0 1
    outer loop
      vertex -4.0449 -8.59586 61
      vertex -5.32224 -11.3103 61
      vertex -4.60156 -11.6222 61
    endloop
  endfacet
  facet normal 0 0 1
    outer loop
      vertex -6.69783 -10.5541 61
      vertex -5.09035 -8.02111 61
      vertex -5.58396 -7.68566 61
    endloop
  endfacet
  facet normal 0 0 1
    outer loop
      vertex -4.57666 -8.32491 61
      vertex -6.02192 -10.9538 61
      vertex -5.32224 -11.3103 61
    endloop
  endfacet
  facet normal 0 0 1
    outer loop
      vertex -7.34731 -10.1127 61
      vertex -5.58396 -7.68566 61
      vertex -6.05553 -7.31988 61
    endloop
  endfacet
  facet normal 0 0 1
    outer loop
      vertex -7.9678 -9.63142 61
      vertex -6.05553 -7.31988 61
      vertex -6.5032 -6.9252 61
    endloop
  endfacet
  facet normal 0 0 1
    outer loop
      vertex -5.09035 -8.02111 61
      vertex -6.69783 -10.5541 61
      vertex -6.02192 -10.9538 61
    endloop
  endfacet
  facet normal 0 0 1
    outer loop
      vertex -8.55684 -9.11211 61
      vertex -6.5032 -6.9252 61
      vertex -6.9252 -6.5032 61
    endloop
  endfacet
  facet normal 0 0 1
    outer loop
      vertex -9.11211 -8.55684 61
      vertex -6.9252 -6.5032 61
      vertex -7.31988 -6.05553 61
    endloop
  endfacet
  facet normal 0 0 1
    outer loop
      vertex -5.58396 -7.68566 61
      vertex -7.34731 -10.1127 61
      vertex -6.69783 -10.5541 61
    endloop
  endfacet
  facet normal 0 0 1
    outer loop
      vertex -9.63142 -7.9678 61
      vertex -7.31988 -6.05553 61
      vertex -7.68566 -5.58396 61
    endloop
  endfacet
  facet normal 0 0 1
    outer loop
      vertex -6.05553 -7.31988 61
      vertex -7.9678 -9.63142 61
      vertex -7.34731 -10.1127 61
    endloop
  endfacet
  facet normal 0 0 1
    outer loop
      vertex -10.1127 -7.34731 61
      vertex -7.68566 -5.58396 61
      vertex -8.02111 -5.09035 61
    endloop
  endfacet
  facet normal 0 0 1
    outer loop
      vertex -10.5541 -6.69783 61
      vertex -8.02111 -5.09035 61
      vertex -8.32491 -4.57666 61
    endloop
  endfacet
  facet normal 0 0 1
    outer loop
      vertex -6.5032 -6.9252 61
      vertex -8.55684 -9.11211 61
      vertex -7.9678 -9.63142 61
    endloop
  endfacet
  facet normal 0 0 1
    outer loop
      vertex -10.9538 -6.02192 61
      vertex -8.32491 -4.57666 61
      vertex -8.59586 -4.0449 61
    endloop
  endfacet
  facet normal 0 0 1
    outer loop
      vertex -11.3103 -5.32224 61
      vertex -8.59586 -4.0449 61
      vertex -8.83288 -3.49718 61
    endloop
  endfacet
  facet normal 0 0 1
    outer loop
      vertex -11.6222 -4.60156 61
      vertex -8.83288 -3.49718 61
      vertex -9.03504 -2.93566 61
    endloop
  endfacet
  facet normal 0 0 1
    outer loop
      vertex -6.9252 -6.5032 61
      vertex -9.11211 -8.55684 61
      vertex -8.55684 -9.11211 61
    endloop
  endfacet
  facet normal 0 0 1
    outer loop
      vertex -11.8882 -3.86271 61
      vertex -9.03504 -2.93566 61
      vertex -9.20154 -2.36255 61
    endloop
  endfacet
  facet normal 0 0 1
    outer loop
      vertex -12.1073 -3.10862 61
      vertex -9.20154 -2.36255 61
      vertex -9.33173 -1.78012 61
    endloop
  endfacet
  facet normal 0 0 1
    outer loop
      vertex -12.2786 -2.34227 61
      vertex -9.33173 -1.78012 61
      vertex -9.42509 -1.19067 61
    endloop
  endfacet
  facet normal 0 0 1
    outer loop
      vertex -12.4014 -1.56666 61
      vertex -9.42509 -1.19067 61
      vertex -9.48125 -0.59651 61
    endloop
  endfacet
  facet normal 0 0 1
    outer loop
      vertex -7.31988 -6.05553 61
      vertex -9.63142 -7.9678 61
      vertex -9.11211 -8.55684 61
    endloop
  endfacet
  facet normal 0 0 1
    outer loop
      vertex -12.4753 -0.784881 61
      vertex -9.48125 -0.59651 61
      vertex -9.5 0 61
    endloop
  endfacet
  facet normal 0 0 1
    outer loop
      vertex -7.68566 -5.58396 61
      vertex -10.1127 -7.34731 61
      vertex -9.63142 -7.9678 61
    endloop
  endfacet
  facet normal 0 0 1
    outer loop
      vertex -8.02111 -5.09035 61
      vertex -10.5541 -6.69783 61
      vertex -10.1127 -7.34731 61
    endloop
  endfacet
  facet normal 0 0 1
    outer loop
      vertex -8.32491 -4.57666 61
      vertex -10.9538 -6.02192 61
      vertex -10.5541 -6.69783 61
    endloop
  endfacet
  facet normal 0 0 1
    outer loop
      vertex -8.59586 -4.0449 61
      vertex -11.3103 -5.32224 61
      vertex -10.9538 -6.02192 61
    endloop
  endfacet
  facet normal 0 0 1
    outer loop
      vertex -8.83288 -3.49718 61
      vertex -11.6222 -4.60156 61
      vertex -11.3103 -5.32224 61
    endloop
  endfacet
  facet normal 0 0 1
    outer loop
      vertex -9.03504 -2.93566 61
      vertex -11.8882 -3.86271 61
      vertex -11.6222 -4.60156 61
    endloop
  endfacet
  facet normal 0 0 1
    outer loop
      vertex -9.20154 -2.36255 61
      vertex -12.1073 -3.10862 61
      vertex -11.8882 -3.86271 61
    endloop
  endfacet
  facet normal 0 0 1
    outer loop
      vertex -9.33173 -1.78012 61
      vertex -12.2786 -2.34227 61
      vertex -12.1073 -3.10862 61
    endloop
  endfacet
  facet normal 0 0 1
    outer loop
      vertex -9.42509 -1.19067 61
      vertex -12.4014 -1.56666 61
      vertex -12.2786 -2.34227 61
    endloop
  endfacet
  facet normal 0 0 1
    outer loop
      vertex -9.48125 -0.59651 61
      vertex -12.4753 -0.784881 61
      vertex -12.4014 -1.56666 61
    endloop
  endfacet
  facet normal 0 -0 1
    outer loop
      vertex -12.4753 -0.784881 61
      vertex -9.5 0 61
      vertex -12.5 0 61
    endloop
  endfacet
  facet normal 0.995562 -0.0941082 0
    outer loop
      vertex 12.4014 -1.56666 61
      vertex 12.4753 -0.784881 -61
      vertex 12.4753 -0.784881 61
    endloop
  endfacet
  facet normal 0.995562 -0.0941082 0
    outer loop
      vertex 12.4753 -0.784881 -61
      vertex 12.4014 -1.56666 61
      vertex 12.4014 -1.56666 -61
    endloop
  endfacet
  facet normal 0.987688 -0.156434 0
    outer loop
      vertex 12.2786 -2.34227 61
      vertex 12.4014 -1.56666 -61
      vertex 12.4014 -1.56666 61
    endloop
  endfacet
  facet normal 0.987688 -0.156434 0
    outer loop
      vertex 12.4014 -1.56666 -61
      vertex 12.2786 -2.34227 61
      vertex 12.2786 -2.34227 -61
    endloop
  endfacet
  facet normal 0.999507 -0.0314119 0
    outer loop
      vertex 12.4753 -0.784881 61
      vertex 12.5 0 -61
      vertex 12.5 0 61
    endloop
  endfacet
  facet normal 0.999507 -0.0314119 0
    outer loop
      vertex 12.5 0 -61
      vertex 12.4753 -0.784881 61
      vertex 12.4753 -0.784881 -61
    endloop
  endfacet
  facet normal 0.960293 -0.278992 0
    outer loop
      vertex 11.8882 -3.86271 61
      vertex 12.1073 -3.10862 -61
      vertex 12.1073 -3.10862 61
    endloop
  endfacet
  facet normal 0.960293 -0.278992 0
    outer loop
      vertex 12.1073 -3.10862 -61
      vertex 11.8882 -3.86271 61
      vertex 11.8882 -3.86271 -61
    endloop
  endfacet
  facet normal 0.218143 -0.975917 0
    outer loop
      vertex 2.34227 -12.2786 -61
      vertex 3.10862 -12.1073 61
      vertex 2.34227 -12.2786 61
    endloop
  endfacet
  facet normal 0.218143 -0.975917 0
    outer loop
      vertex 3.10862 -12.1073 61
      vertex 2.34227 -12.2786 -61
      vertex 3.10862 -12.1073 -61
    endloop
  endfacet
  facet normal 0.509042 -0.860742 0
    outer loop
      vertex 6.02192 -10.9538 -61
      vertex 6.69783 -10.5541 61
      vertex 6.02192 -10.9538 61
    endloop
  endfacet
  facet normal 0.509042 -0.860742 0
    outer loop
      vertex 6.69783 -10.5541 61
      vertex 6.02192 -10.9538 -61
      vertex 6.69783 -10.5541 -61
    endloop
  endfacet
  facet normal -0.278992 -0.960293 0
    outer loop
      vertex -3.86271 -11.8882 -61
      vertex -3.10862 -12.1073 61
      vertex -3.86271 -11.8882 61
    endloop
  endfacet
  facet normal -0.278992 -0.960293 -0
    outer loop
      vertex -3.10862 -12.1073 61
      vertex -3.86271 -11.8882 -61
      vertex -3.10862 -12.1073 -61
    endloop
  endfacet
  facet normal -0.661312 -0.750111 0
    outer loop
      vertex -8.55684 -9.11211 -61
      vertex -7.9678 -9.63142 61
      vertex -8.55684 -9.11211 61
    endloop
  endfacet
  facet normal -0.661312 -0.750111 -0
    outer loop
      vertex -7.9678 -9.63142 61
      vertex -8.55684 -9.11211 -61
      vertex -7.9678 -9.63142 -61
    endloop
  endfacet
  facet normal -0.860742 -0.509042 0
    outer loop
      vertex -10.5541 -6.69783 -61
      vertex -10.9538 -6.02192 61
      vertex -10.9538 -6.02192 -61
    endloop
  endfacet
  facet normal -0.860742 -0.509042 0
    outer loop
      vertex -10.9538 -6.02192 61
      vertex -10.5541 -6.69783 -61
      vertex -10.5541 -6.69783 61
    endloop
  endfacet
  facet normal -0.790155 -0.612907 0
    outer loop
      vertex -9.63142 -7.9678 -61
      vertex -10.1127 -7.34731 61
      vertex -10.1127 -7.34731 -61
    endloop
  endfacet
  facet normal -0.790155 -0.612907 0
    outer loop
      vertex -10.1127 -7.34731 61
      vertex -9.63142 -7.9678 -61
      vertex -9.63142 -7.9678 61
    endloop
  endfacet
  facet normal -0.0941092 0.995562 0
    outer loop
      vertex 1.19067 -9.42509 -61
      vertex 0.59651 -9.48125 61
      vertex 1.19067 -9.42509 61
    endloop
  endfacet
  facet normal -0.0941092 0.995562 0
    outer loop
      vertex 0.59651 -9.48125 61
      vertex 1.19067 -9.42509 -61
      vertex 0.59651 -9.48125 -61
    endloop
  endfacet
  facet normal 0.75011 0.661313 0
    outer loop
      vertex -6.9252 -6.5032 61
      vertex -7.31988 -6.05553 -61
      vertex -7.31988 -6.05553 61
    endloop
  endfacet
  facet normal 0.75011 0.661313 0
    outer loop
      vertex -7.31988 -6.05553 -61
      vertex -6.9252 -6.5032 61
      vertex -6.9252 -6.5032 -61
    endloop
  endfacet
  facet normal -0.860742 0.509042 0
    outer loop
      vertex 8.02111 -5.09035 -61
      vertex 8.32491 -4.57666 61
      vertex 8.32491 -4.57666 -61
    endloop
  endfacet
  facet normal -0.860742 0.509042 0
    outer loop
      vertex 8.32491 -4.57666 61
      vertex 8.02111 -5.09035 -61
      vertex 8.02111 -5.09035 61
    endloop
  endfacet
  facet normal -0.278992 0.960293 0
    outer loop
      vertex 2.93566 -9.03504 -61
      vertex 2.36255 -9.20154 61
      vertex 2.93566 -9.03504 61
    endloop
  endfacet
  facet normal -0.278992 0.960293 0
    outer loop
      vertex 2.36255 -9.20154 61
      vertex 2.93566 -9.03504 -61
      vertex 2.36255 -9.20154 -61
    endloop
  endfacet
  facet normal -0.707107 0.707107 0
    outer loop
      vertex 6.5032 -6.9252 -61
      vertex 6.9252 -6.5032 61
      vertex 6.9252 -6.5032 -61
    endloop
  endfacet
  facet normal -0.707107 0.707107 0
    outer loop
      vertex 6.9252 -6.5032 61
      vertex 6.5032 -6.9252 -61
      vertex 6.5032 -6.9252 61
    endloop
  endfacet
  facet normal -0.790155 0.612907 0
    outer loop
      vertex 7.31988 -6.05553 -61
      vertex 7.68566 -5.58396 61
      vertex 7.68566 -5.58396 -61
    endloop
  endfacet
  facet normal -0.790155 0.612907 0
    outer loop
      vertex 7.68566 -5.58396 61
      vertex 7.31988 -6.05553 -61
      vertex 7.31988 -6.05553 61
    endloop
  endfacet
  facet normal -0.999507 0.0314113 0
    outer loop
      vertex 9.48125 -0.59651 -61
      vertex 9.5 0 61
      vertex 9.5 0 -61
    endloop
  endfacet
  facet normal -0.999507 0.0314113 0
    outer loop
      vertex 9.5 0 61
      vertex 9.48125 -0.59651 -61
      vertex 9.48125 -0.59651 61
    endloop
  endfacet
  facet normal -0.960293 0.278992 0
    outer loop
      vertex 9.03504 -2.93566 -61
      vertex 9.20154 -2.36255 61
      vertex 9.20154 -2.36255 -61
    endloop
  endfacet
  facet normal -0.960293 0.278992 0
    outer loop
      vertex 9.20154 -2.36255 61
      vertex 9.03504 -2.93566 -61
      vertex 9.03504 -2.93566 61
    endloop
  endfacet
  facet normal 0.397148 0.917755 -0
    outer loop
      vertex -3.49718 -8.83288 -61
      vertex -4.0449 -8.59586 61
      vertex -3.49718 -8.83288 61
    endloop
  endfacet
  facet normal 0.397148 0.917755 0
    outer loop
      vertex -4.0449 -8.59586 61
      vertex -3.49718 -8.83288 -61
      vertex -4.0449 -8.59586 -61
    endloop
  endfacet
  facet normal 0.975917 0.218142 0
    outer loop
      vertex -9.20154 -2.36255 61
      vertex -9.33173 -1.78012 -61
      vertex -9.33173 -1.78012 61
    endloop
  endfacet
  facet normal 0.975917 0.218142 0
    outer loop
      vertex -9.33173 -1.78012 -61
      vertex -9.20154 -2.36255 61
      vertex -9.20154 -2.36255 -61
    endloop
  endfacet
  facet normal -0.453991 0.891006 0
    outer loop
      vertex 4.57666 -8.32491 -61
      vertex 4.0449 -8.59586 61
      vertex 4.57666 -8.32491 61
    endloop
  endfacet
  facet normal -0.453991 0.891006 0
    outer loop
      vertex 4.0449 -8.59586 61
      vertex 4.57666 -8.32491 -61
      vertex 4.0449 -8.59586 -61
    endloop
  endfacet
  facet normal -0.612907 0.790155 0
    outer loop
      vertex 6.05553 -7.31988 -61
      vertex 5.58396 -7.68566 61
      vertex 6.05553 -7.31988 61
    endloop
  endfacet
  facet normal -0.612907 0.790155 0
    outer loop
      vertex 5.58396 -7.68566 61
      vertex 6.05553 -7.31988 -61
      vertex 5.58396 -7.68566 -61
    endloop
  endfacet
  facet normal -0.509042 0.860742 0
    outer loop
      vertex 5.09035 -8.02111 -61
      vertex 4.57666 -8.32491 61
      vertex 5.09035 -8.02111 61
    endloop
  endfacet
  facet normal -0.509042 0.860742 0
    outer loop
      vertex 4.57666 -8.32491 61
      vertex 5.09035 -8.02111 -61
      vertex 4.57666 -8.32491 -61
    endloop
  endfacet
  facet normal -0.75011 0.661313 0
    outer loop
      vertex 6.9252 -6.5032 -61
      vertex 7.31988 -6.05553 61
      vertex 7.31988 -6.05553 -61
    endloop
  endfacet
  facet normal -0.75011 0.661313 0
    outer loop
      vertex 7.31988 -6.05553 61
      vertex 6.9252 -6.5032 -61
      vertex 6.9252 -6.5032 61
    endloop
  endfacet
  facet normal 0.612907 0.790155 -0
    outer loop
      vertex -5.58396 -7.68566 -61
      vertex -6.05553 -7.31988 61
      vertex -5.58396 -7.68566 61
    endloop
  endfacet
  facet normal 0.612907 0.790155 0
    outer loop
      vertex -6.05553 -7.31988 61
      vertex -5.58396 -7.68566 -61
      vertex -6.05553 -7.31988 -61
    endloop
  endfacet
  facet normal 0.338737 0.940881 -0
    outer loop
      vertex -2.93566 -9.03504 -61
      vertex -3.49718 -8.83288 61
      vertex -2.93566 -9.03504 61
    endloop
  endfacet
  facet normal 0.338737 0.940881 0
    outer loop
      vertex -3.49718 -8.83288 61
      vertex -2.93566 -9.03504 -61
      vertex -3.49718 -8.83288 -61
    endloop
  endfacet
  facet normal 0.0314113 0.999507 -0
    outer loop
      vertex 0 -9.5 -61
      vertex -0.59651 -9.48125 61
      vertex 0 -9.5 61
    endloop
  endfacet
  facet normal 0.0314113 0.999507 0
    outer loop
      vertex -0.59651 -9.48125 61
      vertex 0 -9.5 -61
      vertex -0.59651 -9.48125 -61
    endloop
  endfacet
  facet normal 0.917755 0.397148 0
    outer loop
      vertex -8.59586 -4.0449 61
      vertex -8.83288 -3.49718 -61
      vertex -8.83288 -3.49718 61
    endloop
  endfacet
  facet normal 0.917755 0.397148 0
    outer loop
      vertex -8.83288 -3.49718 -61
      vertex -8.59586 -4.0449 61
      vertex -8.59586 -4.0449 -61
    endloop
  endfacet
  facet normal 0.999507 0.0314113 0
    outer loop
      vertex -9.48125 -0.59651 61
      vertex -9.5 0 -61
      vertex -9.5 0 61
    endloop
  endfacet
  facet normal 0.999507 0.0314113 0
    outer loop
      vertex -9.5 0 -61
      vertex -9.48125 -0.59651 61
      vertex -9.48125 -0.59651 -61
    endloop
  endfacet
  facet normal -0.0314113 0.999507 0
    outer loop
      vertex 0.59651 -9.48125 -61
      vertex 0 -9.5 61
      vertex 0.59651 -9.48125 61
    endloop
  endfacet
  facet normal -0.0314113 0.999507 0
    outer loop
      vertex 0 -9.5 61
      vertex 0.59651 -9.48125 -61
      vertex 0 -9.5 -61
    endloop
  endfacet
  facet normal -0.397148 0.917755 0
    outer loop
      vertex 4.0449 -8.59586 -61
      vertex 3.49718 -8.83288 61
      vertex 4.0449 -8.59586 61
    endloop
  endfacet
  facet normal -0.397148 0.917755 0
    outer loop
      vertex 3.49718 -8.83288 61
      vertex 4.0449 -8.59586 -61
      vertex 3.49718 -8.83288 -61
    endloop
  endfacet
  facet normal -0.338737 0.940881 0
    outer loop
      vertex 3.49718 -8.83288 -61
      vertex 2.93566 -9.03504 61
      vertex 3.49718 -8.83288 61
    endloop
  endfacet
  facet normal -0.338737 0.940881 0
    outer loop
      vertex 2.93566 -9.03504 61
      vertex 3.49718 -8.83288 -61
      vertex 2.93566 -9.03504 -61
    endloop
  endfacet
  facet normal -0.661313 0.75011 0
    outer loop
      vertex 6.5032 -6.9252 -61
      vertex 6.05553 -7.31988 61
      vertex 6.5032 -6.9252 61
    endloop
  endfacet
  facet normal -0.661313 0.75011 0
    outer loop
      vertex 6.05553 -7.31988 61
      vertex 6.5032 -6.9252 -61
      vertex 6.05553 -7.31988 -61
    endloop
  endfacet
  facet normal -0.917755 0.397148 0
    outer loop
      vertex 8.59586 -4.0449 -61
      vertex 8.83288 -3.49718 61
      vertex 8.83288 -3.49718 -61
    endloop
  endfacet
  facet normal -0.917755 0.397148 0
    outer loop
      vertex 8.83288 -3.49718 61
      vertex 8.59586 -4.0449 -61
      vertex 8.59586 -4.0449 61
    endloop
  endfacet
  facet normal -0.891006 0.453991 0
    outer loop
      vertex 8.32491 -4.57666 -61
      vertex 8.59586 -4.0449 61
      vertex 8.59586 -4.0449 -61
    endloop
  endfacet
  facet normal -0.891006 0.453991 0
    outer loop
      vertex 8.59586 -4.0449 61
      vertex 8.32491 -4.57666 -61
      vertex 8.32491 -4.57666 61
    endloop
  endfacet
  facet normal -0.940881 0.338737 0
    outer loop
      vertex 8.83288 -3.49718 -61
      vertex 9.03504 -2.93566 61
      vertex 9.03504 -2.93566 -61
    endloop
  endfacet
  facet normal -0.940881 0.338737 0
    outer loop
      vertex 9.03504 -2.93566 61
      vertex 8.83288 -3.49718 -61
      vertex 8.83288 -3.49718 61
    endloop
  endfacet
  facet normal 0.156435 0.987688 -0
    outer loop
      vertex -1.19067 -9.42509 -61
      vertex -1.78012 -9.33173 61
      vertex -1.19067 -9.42509 61
    endloop
  endfacet
  facet normal 0.156435 0.987688 0
    outer loop
      vertex -1.78012 -9.33173 61
      vertex -1.19067 -9.42509 -61
      vertex -1.78012 -9.33173 -61
    endloop
  endfacet
  facet normal 0.707107 0.707107 0
    outer loop
      vertex -6.5032 -6.9252 61
      vertex -6.9252 -6.5032 -61
      vertex -6.9252 -6.5032 61
    endloop
  endfacet
  facet normal 0.707107 0.707107 0
    outer loop
      vertex -6.9252 -6.5032 -61
      vertex -6.5032 -6.9252 61
      vertex -6.5032 -6.9252 -61
    endloop
  endfacet
  facet normal 0.218142 0.975917 -0
    outer loop
      vertex -1.78012 -9.33173 -61
      vertex -2.36255 -9.20154 61
      vertex -1.78012 -9.33173 61
    endloop
  endfacet
  facet normal 0.218142 0.975917 0
    outer loop
      vertex -2.36255 -9.20154 61
      vertex -1.78012 -9.33173 -61
      vertex -2.36255 -9.20154 -61
    endloop
  endfacet
  facet normal 0.0941092 0.995562 -0
    outer loop
      vertex -0.59651 -9.48125 -61
      vertex -1.19067 -9.42509 61
      vertex -0.59651 -9.48125 61
    endloop
  endfacet
  facet normal 0.0941092 0.995562 0
    outer loop
      vertex -1.19067 -9.42509 61
      vertex -0.59651 -9.48125 -61
      vertex -1.19067 -9.42509 -61
    endloop
  endfacet
  facet normal 0.453991 0.891006 -0
    outer loop
      vertex -4.0449 -8.59586 -61
      vertex -4.57666 -8.32491 61
      vertex -4.0449 -8.59586 61
    endloop
  endfacet
  facet normal 0.453991 0.891006 0
    outer loop
      vertex -4.57666 -8.32491 61
      vertex -4.0449 -8.59586 -61
      vertex -4.57666 -8.32491 -61
    endloop
  endfacet
  facet normal 0.562082 0.827081 -0
    outer loop
      vertex -5.09035 -8.02111 -61
      vertex -5.58396 -7.68566 61
      vertex -5.09035 -8.02111 61
    endloop
  endfacet
  facet normal 0.562082 0.827081 0
    outer loop
      vertex -5.58396 -7.68566 61
      vertex -5.09035 -8.02111 -61
      vertex -5.58396 -7.68566 -61
    endloop
  endfacet
  facet normal 0.509042 0.860742 -0
    outer loop
      vertex -4.57666 -8.32491 -61
      vertex -5.09035 -8.02111 61
      vertex -4.57666 -8.32491 61
    endloop
  endfacet
  facet normal 0.509042 0.860742 0
    outer loop
      vertex -5.09035 -8.02111 61
      vertex -4.57666 -8.32491 -61
      vertex -5.09035 -8.02111 -61
    endloop
  endfacet
  facet normal 0.661313 0.75011 -0
    outer loop
      vertex -6.05553 -7.31988 -61
      vertex -6.5032 -6.9252 61
      vertex -6.05553 -7.31988 61
    endloop
  endfacet
  facet normal 0.661313 0.75011 0
    outer loop
      vertex -6.5032 -6.9252 61
      vertex -6.05553 -7.31988 -61
      vertex -6.5032 -6.9252 -61
    endloop
  endfacet
  facet normal 0.827081 0.562082 0
    outer loop
      vertex -7.68566 -5.58396 61
      vertex -8.02111 -5.09035 -61
      vertex -8.02111 -5.09035 61
    endloop
  endfacet
  facet normal 0.827081 0.562082 0
    outer loop
      vertex -8.02111 -5.09035 -61
      vertex -7.68566 -5.58396 61
      vertex -7.68566 -5.58396 -61
    endloop
  endfacet
  facet normal 0.891006 0.453991 0
    outer loop
      vertex -8.32491 -4.57666 61
      vertex -8.59586 -4.0449 -61
      vertex -8.59586 -4.0449 61
    endloop
  endfacet
  facet normal 0.891006 0.453991 0
    outer loop
      vertex -8.59586 -4.0449 -61
      vertex -8.32491 -4.57666 61
      vertex -8.32491 -4.57666 -61
    endloop
  endfacet
  facet normal 0.860742 0.509042 0
    outer loop
      vertex -8.02111 -5.09035 61
      vertex -8.32491 -4.57666 -61
      vertex -8.32491 -4.57666 61
    endloop
  endfacet
  facet normal 0.860742 0.509042 0
    outer loop
      vertex -8.32491 -4.57666 -61
      vertex -8.02111 -5.09035 61
      vertex -8.02111 -5.09035 -61
    endloop
  endfacet
  facet normal 0.995562 0.0941092 0
    outer loop
      vertex -9.42509 -1.19067 61
      vertex -9.48125 -0.59651 -61
      vertex -9.48125 -0.59651 61
    endloop
  endfacet
  facet normal 0.995562 0.0941092 0
    outer loop
      vertex -9.48125 -0.59651 -61
      vertex -9.42509 -1.19067 61
      vertex -9.42509 -1.19067 -61
    endloop
  endfacet
  facet normal 0.960293 0.278992 0
    outer loop
      vertex -9.03504 -2.93566 61
      vertex -9.20154 -2.36255 -61
      vertex -9.20154 -2.36255 61
    endloop
  endfacet
  facet normal 0.960293 0.278992 0
    outer loop
      vertex -9.20154 -2.36255 -61
      vertex -9.03504 -2.93566 61
      vertex -9.03504 -2.93566 -61
    endloop
  endfacet
  facet normal 0.940881 0.338737 0
    outer loop
      vertex -8.83288 -3.49718 61
      vertex -9.03504 -2.93566 -61
      vertex -9.03504 -2.93566 61
    endloop
  endfacet
  facet normal 0.940881 0.338737 0
    outer loop
      vertex -9.03504 -2.93566 -61
      vertex -8.83288 -3.49718 61
      vertex -8.83288 -3.49718 -61
    endloop
  endfacet
  facet normal -0.218142 0.975917 0
    outer loop
      vertex 2.36255 -9.20154 -61
      vertex 1.78012 -9.33173 61
      vertex 2.36255 -9.20154 61
    endloop
  endfacet
  facet normal -0.218142 0.975917 0
    outer loop
      vertex 1.78012 -9.33173 61
      vertex 2.36255 -9.20154 -61
      vertex 1.78012 -9.33173 -61
    endloop
  endfacet
  facet normal -0.562082 0.827081 0
    outer loop
      vertex 5.58396 -7.68566 -61
      vertex 5.09035 -8.02111 61
      vertex 5.58396 -7.68566 61
    endloop
  endfacet
  facet normal -0.562082 0.827081 0
    outer loop
      vertex 5.09035 -8.02111 61
      vertex 5.58396 -7.68566 -61
      vertex 5.09035 -8.02111 -61
    endloop
  endfacet
  facet normal -0.827081 0.562082 0
    outer loop
      vertex 7.68566 -5.58396 -61
      vertex 8.02111 -5.09035 61
      vertex 8.02111 -5.09035 -61
    endloop
  endfacet
  facet normal -0.827081 0.562082 0
    outer loop
      vertex 8.02111 -5.09035 61
      vertex 7.68566 -5.58396 -61
      vertex 7.68566 -5.58396 61
    endloop
  endfacet
  facet normal -0.975917 0.218142 0
    outer loop
      vertex 9.20154 -2.36255 -61
      vertex 9.33173 -1.78012 61
      vertex 9.33173 -1.78012 -61
    endloop
  endfacet
  facet normal -0.975917 0.218142 0
    outer loop
      vertex 9.33173 -1.78012 61
      vertex 9.20154 -2.36255 -61
      vertex 9.20154 -2.36255 61
    endloop
  endfacet
  facet normal -0.987688 0.156435 0
    outer loop
      vertex 9.33173 -1.78012 -61
      vertex 9.42509 -1.19067 61
      vertex 9.42509 -1.19067 -61
    endloop
  endfacet
  facet normal -0.987688 0.156435 0
    outer loop
      vertex 9.42509 -1.19067 61
      vertex 9.33173 -1.78012 -61
      vertex 9.33173 -1.78012 61
    endloop
  endfacet
  facet normal 0.278992 0.960293 -0
    outer loop
      vertex -2.36255 -9.20154 -61
      vertex -2.93566 -9.03504 61
      vertex -2.36255 -9.20154 61
    endloop
  endfacet
  facet normal 0.278992 0.960293 0
    outer loop
      vertex -2.93566 -9.03504 61
      vertex -2.36255 -9.20154 -61
      vertex -2.93566 -9.03504 -61
    endloop
  endfacet
  facet normal 0.790155 0.612907 0
    outer loop
      vertex -7.31988 -6.05553 61
      vertex -7.68566 -5.58396 -61
      vertex -7.68566 -5.58396 61
    endloop
  endfacet
  facet normal 0.790155 0.612907 0
    outer loop
      vertex -7.68566 -5.58396 -61
      vertex -7.31988 -6.05553 61
      vertex -7.31988 -6.05553 -61
    endloop
  endfacet
  facet normal 0.987688 0.156435 0
    outer loop
      vertex -9.33173 -1.78012 61
      vertex -9.42509 -1.19067 -61
      vertex -9.42509 -1.19067 61
    endloop
  endfacet
  facet normal 0.987688 0.156435 0
    outer loop
      vertex -9.42509 -1.19067 -61
      vertex -9.33173 -1.78012 61
      vertex -9.33173 -1.78012 -61
    endloop
  endfacet
  facet normal -0.156435 0.987688 0
    outer loop
      vertex 1.78012 -9.33173 -61
      vertex 1.19067 -9.42509 61
      vertex 1.78012 -9.33173 61
    endloop
  endfacet
  facet normal -0.156435 0.987688 0
    outer loop
      vertex 1.19067 -9.42509 61
      vertex 1.78012 -9.33173 -61
      vertex 1.19067 -9.42509 -61
    endloop
  endfacet
  facet normal -0.995562 0.0941092 0
    outer loop
      vertex 9.42509 -1.19067 -61
      vertex 9.48125 -0.59651 61
      vertex 9.48125 -0.59651 -61
    endloop
  endfacet
  facet normal -0.995562 0.0941092 0
    outer loop
      vertex 9.48125 -0.59651 61
      vertex 9.42509 -1.19067 -61
      vertex 9.42509 -1.19067 61
    endloop
  endfacet
  facet normal 0 1 -0
    outer loop
      vertex 12.5 0 -61
      vertex 9.5 0 61
      vertex 12.5 0 61
    endloop
  endfacet
  facet normal 0 1 0
    outer loop
      vertex 9.5 0 61
      vertex 12.5 0 -61
      vertex 9.5 0 -61
    endloop
  endfacet
  facet normal 0 1 -0
    outer loop
      vertex -9.5 0 -61
      vertex -12.5 0 61
      vertex -9.5 0 61
    endloop
  endfacet
  facet normal 0 1 0
    outer loop
      vertex -12.5 0 61
      vertex -9.5 0 -61
      vertex -12.5 0 -61
    endloop
  endfacet
endsolid OpenSCAD_Model
