solid OpenSCAD_Model
  facet normal 0 -1 0
    outer loop
      vertex -1.30661 -12.4315 -61
      vertex 1.30661 -12.4315 61
      vertex -1.30661 -12.4315 61
    endloop
  endfacet
  facet normal 0 -1 -0
    outer loop
      vertex 1.30661 -12.4315 61
      vertex -1.30661 -12.4315 -61
      vertex 1.30661 -12.4315 -61
    endloop
  endfacet
  facet normal 0.866025 -0.5 0
    outer loop
      vertex 10.1127 -7.34731 61
      vertex 11.4193 -5.08421 -61
      vertex 11.4193 -5.08421 61
    endloop
  endfacet
  facet normal 0.866025 -0.5 0
    outer loop
      vertex 11.4193 -5.08421 -61
      vertex 10.1127 -7.34731 61
      vertex 10.1127 -7.34731 -61
    endloop
  endfacet
  facet normal -0 0 1
    outer loop
      vertex 9.2924 -1.97516 61
      vertex 12.2268 -2.5989 61
      vertex 12.5 0 61
    endloop
  endfacet
  facet normal 0 0 1
    outer loop
      vertex 12.2268 -2.5989 61
      vertex 9.2924 -1.97516 61
      vertex 11.4193 -5.08421 61
    endloop
  endfacet
  facet normal 0 0 1
    outer loop
      vertex 9.2924 -1.97516 61
      vertex 12.5 0 61
      vertex 9.5 0 61
    endloop
  endfacet
  facet normal -0 0 1
    outer loop
      vertex 8.67868 -3.864 61
      vertex 11.4193 -5.08421 61
      vertex 9.2924 -1.97516 61
    endloop
  endfacet
  facet normal 0 0 1
    outer loop
      vertex 11.4193 -5.08421 61
      vertex 8.67868 -3.864 61
      vertex 10.1127 -7.34731 61
    endloop
  endfacet
  facet normal -0 0 1
    outer loop
      vertex 7.68566 -5.58396 61
      vertex 10.1127 -7.34731 61
      vertex 8.67868 -3.864 61
    endloop
  endfacet
  facet normal 0 0 1
    outer loop
      vertex 10.1127 -7.34731 61
      vertex 7.68566 -5.58396 61
      vertex 8.36413 -9.28931 61
    endloop
  endfacet
  facet normal -0 0 1
    outer loop
      vertex 6.35674 -7.05988 61
      vertex 8.36413 -9.28931 61
      vertex 7.68566 -5.58396 61
    endloop
  endfacet
  facet normal 0 0 1
    outer loop
      vertex 6.35674 -7.05988 61
      vertex 6.25 -10.8253 61
      vertex 8.36413 -9.28931 61
    endloop
  endfacet
  facet normal -0 0 1
    outer loop
      vertex 4.75 -8.22724 61
      vertex 6.25 -10.8253 61
      vertex 6.35674 -7.05988 61
    endloop
  endfacet
  facet normal 0 0 1
    outer loop
      vertex 4.75 -8.22724 61
      vertex 3.86271 -11.8882 61
      vertex 6.25 -10.8253 61
    endloop
  endfacet
  facet normal -0 0 1
    outer loop
      vertex 2.93566 -9.03504 61
      vertex 3.86271 -11.8882 61
      vertex 4.75 -8.22724 61
    endloop
  endfacet
  facet normal 0 0 1
    outer loop
      vertex 2.93566 -9.03504 61
      vertex 1.30661 -12.4315 61
      vertex 3.86271 -11.8882 61
    endloop
  endfacet
  facet normal -0 0 1
    outer loop
      vertex 0.99302 -9.44796 61
      vertex 1.30661 -12.4315 61
      vertex 2.93566 -9.03504 61
    endloop
  endfacet
  facet normal -0 0 1
    outer loop
      vertex -0.99302 -9.44796 61
      vertex 1.30661 -12.4315 61
      vertex 0.99302 -9.44796 61
    endloop
  endfacet
  facet normal 0 0 1
    outer loop
      vertex -0.99302 -9.44796 61
      vertex -1.30661 -12.4315 61
      vertex 1.30661 -12.4315 61
    endloop
  endfacet
  facet normal 0 0 1
    outer loop
      vertex -2.93566 -9.03504 61
      vertex -1.30661 -12.4315 61
      vertex -0.99302 -9.44796 61
    endloop
  endfacet
  facet normal 0 0 1
    outer loop
      vertex -2.93566 -9.03504 61
      vertex -3.86271 -11.8882 61
      vertex -1.30661 -12.4315 61
    endloop
  endfacet
  facet normal 0 0 1
    outer loop
      vertex -4.75 -8.22724 61
      vertex -3.86271 -11.8882 61
      vertex -2.93566 -9.03504 61
    endloop
  endfacet
  facet normal 0 0 1
    outer loop
      vertex -4.75 -8.22724 61
      vertex -6.25 -10.8253 61
      vertex -3.86271 -11.8882 61
    endloop
  endfacet
  facet normal 0 0 1
    outer loop
      vertex -6.35674 -7.05988 61
      vertex -6.25 -10.8253 61
      vertex -4.75 -8.22724 61
    endloop
  endfacet
  facet normal 0 0 1
    outer loop
      vertex -8.36413 -9.28931 61
      vertex -6.35674 -7.05988 61
      vertex -7.68566 -5.58396 61
    endloop
  endfacet
  facet normal 0 0 1
    outer loop
      vertex -6.35674 -7.05988 61
      vertex -8.36413 -9.28931 61
      vertex -6.25 -10.8253 61
    endloop
  endfacet
  facet normal 0 0 1
    outer loop
      vertex -10.1127 -7.34731 61
      vertex -7.68566 -5.58396 61
      vertex -8.67868 -3.864 61
    endloop
  endfacet
  facet normal 0 0 1
    outer loop
      vertex -11.4193 -5.08421 61
      vertex -8.67868 -3.864 61
      vertex -9.2924 -1.97516 61
    endloop
  endfacet
  facet normal 0 0 1
    outer loop
      vertex -7.68566 -5.58396 61
      vertex -10.1127 -7.34731 61
      vertex -8.36413 -9.28931 61
    endloop
  endfacet
  facet normal 0 0 1
    outer loop
      vertex -12.2268 -2.5989 61
      vertex -9.2924 -1.97516 61
      vertex -9.5 0 61
    endloop
  endfacet
  facet normal 0 0 1
    outer loop
      vertex -8.67868 -3.864 61
      vertex -11.4193 -5.08421 61
      vertex -10.1127 -7.34731 61
    endloop
  endfacet
  facet normal 0 0 1
    outer loop
      vertex -9.2924 -1.97516 61
      vertex -12.2268 -2.5989 61
      vertex -11.4193 -5.08421 61
    endloop
  endfacet
  facet normal 0 -0 1
    outer loop
      vertex -12.2268 -2.5989 61
      vertex -9.5 0 61
      vertex -12.5 0 61
    endloop
  endfacet
  facet normal 0.994522 -0.104529 0
    outer loop
      vertex 12.2268 -2.5989 61
      vertex 12.5 0 -61
      vertex 12.5 0 61
    endloop
  endfacet
  facet normal 0.994522 -0.104529 0
    outer loop
      vertex 12.5 0 -61
      vertex 12.2268 -2.5989 61
      vertex 12.2268 -2.5989 -61
    endloop
  endfacet
  facet normal 0 0 -1
    outer loop
      vertex 9.2924 -1.97516 -61
      vertex 12.2268 -2.5989 -61
      vertex 11.4193 -5.08421 -61
    endloop
  endfacet
  facet normal 0 0 -1
    outer loop
      vertex 8.67868 -3.864 -61
      vertex 11.4193 -5.08421 -61
      vertex 10.1127 -7.34731 -61
    endloop
  endfacet
  facet normal 0 0 -1
    outer loop
      vertex 12.2268 -2.5989 -61
      vertex 9.2924 -1.97516 -61
      vertex 12.5 0 -61
    endloop
  endfacet
  facet normal -0 0 -1
    outer loop
      vertex 12.5 0 -61
      vertex 9.2924 -1.97516 -61
      vertex 9.5 0 -61
    endloop
  endfacet
  facet normal 0 0 -1
    outer loop
      vertex 11.4193 -5.08421 -61
      vertex 8.67868 -3.864 -61
      vertex 9.2924 -1.97516 -61
    endloop
  endfacet
  facet normal 0 0 -1
    outer loop
      vertex 7.68566 -5.58396 -61
      vertex 10.1127 -7.34731 -61
      vertex 8.36413 -9.28931 -61
    endloop
  endfacet
  facet normal 0 0 -1
    outer loop
      vertex 10.1127 -7.34731 -61
      vertex 7.68566 -5.58396 -61
      vertex 8.67868 -3.864 -61
    endloop
  endfacet
  facet normal 0 0 -1
    outer loop
      vertex 8.36413 -9.28931 -61
      vertex 6.35674 -7.05988 -61
      vertex 7.68566 -5.58396 -61
    endloop
  endfacet
  facet normal 0 0 -1
    outer loop
      vertex 6.25 -10.8253 -61
      vertex 6.35674 -7.05988 -61
      vertex 8.36413 -9.28931 -61
    endloop
  endfacet
  facet normal 0 0 -1
    outer loop
      vertex 6.25 -10.8253 -61
      vertex 4.75 -8.22724 -61
      vertex 6.35674 -7.05988 -61
    endloop
  endfacet
  facet normal 0 0 -1
    outer loop
      vertex 3.86271 -11.8882 -61
      vertex 4.75 -8.22724 -61
      vertex 6.25 -10.8253 -61
    endloop
  endfacet
  facet normal 0 0 -1
    outer loop
      vertex 3.86271 -11.8882 -61
      vertex 2.93566 -9.03504 -61
      vertex 4.75 -8.22724 -61
    endloop
  endfacet
  facet normal 0 0 -1
    outer loop
      vertex 1.30661 -12.4315 -61
      vertex 2.93566 -9.03504 -61
      vertex 3.86271 -11.8882 -61
    endloop
  endfacet
  facet normal 0 0 -1
    outer loop
      vertex 1.30661 -12.4315 -61
      vertex 0.99302 -9.44796 -61
      vertex 2.93566 -9.03504 -61
    endloop
  endfacet
  facet normal 0 0 -1
    outer loop
      vertex 1.30661 -12.4315 -61
      vertex -0.99302 -9.44796 -61
      vertex 0.99302 -9.44796 -61
    endloop
  endfacet
  facet normal 0 0 -1
    outer loop
      vertex -1.30661 -12.4315 -61
      vertex -0.99302 -9.44796 -61
      vertex 1.30661 -12.4315 -61
    endloop
  endfacet
  facet normal 0 0 -1
    outer loop
      vertex -1.30661 -12.4315 -61
      vertex -2.93566 -9.03504 -61
      vertex -0.99302 -9.44796 -61
    endloop
  endfacet
  facet normal 0 0 -1
    outer loop
      vertex -3.86271 -11.8882 -61
      vertex -2.93566 -9.03504 -61
      vertex -1.30661 -12.4315 -61
    endloop
  endfacet
  facet normal 0 0 -1
    outer loop
      vertex -3.86271 -11.8882 -61
      vertex -4.75 -8.22724 -61
      vertex -2.93566 -9.03504 -61
    endloop
  endfacet
  facet normal 0 0 -1
    outer loop
      vertex -6.25 -10.8253 -61
      vertex -4.75 -8.22724 -61
      vertex -3.86271 -11.8882 -61
    endloop
  endfacet
  facet normal 0 0 -1
    outer loop
      vertex -6.25 -10.8253 -61
      vertex -6.35674 -7.05988 -61
      vertex -4.75 -8.22724 -61
    endloop
  endfacet
  facet normal 0 0 -1
    outer loop
      vertex -8.36413 -9.28931 -61
      vertex -6.35674 -7.05988 -61
      vertex -6.25 -10.8253 -61
    endloop
  endfacet
  facet normal -0 0 -1
    outer loop
      vertex -6.35674 -7.05988 -61
      vertex -8.36413 -9.28931 -61
      vertex -7.68566 -5.58396 -61
    endloop
  endfacet
  facet normal 0 0 -1
    outer loop
      vertex -10.1127 -7.34731 -61
      vertex -7.68566 -5.58396 -61
      vertex -8.36413 -9.28931 -61
    endloop
  endfacet
  facet normal -0 0 -1
    outer loop
      vertex -7.68566 -5.58396 -61
      vertex -10.1127 -7.34731 -61
      vertex -8.67868 -3.864 -61
    endloop
  endfacet
  facet normal 0 0 -1
    outer loop
      vertex -11.4193 -5.08421 -61
      vertex -8.67868 -3.864 -61
      vertex -10.1127 -7.34731 -61
    endloop
  endfacet
  facet normal -0 0 -1
    outer loop
      vertex -8.67868 -3.864 -61
      vertex -11.4193 -5.08421 -61
      vertex -9.2924 -1.97516 -61
    endloop
  endfacet
  facet normal 0 0 -1
    outer loop
      vertex -12.2268 -2.5989 -61
      vertex -9.2924 -1.97516 -61
      vertex -11.4193 -5.08421 -61
    endloop
  endfacet
  facet normal -0 0 -1
    outer loop
      vertex -9.2924 -1.97516 -61
      vertex -12.2268 -2.5989 -61
      vertex -9.5 0 -61
    endloop
  endfacet
  facet normal -0 0 -1
    outer loop
      vertex -9.5 0 -61
      vertex -12.2268 -2.5989 -61
      vertex -12.5 0 -61
    endloop
  endfacet
  facet normal 0.951057 -0.309017 0
    outer loop
      vertex 11.4193 -5.08421 61
      vertex 12.2268 -2.5989 -61
      vertex 12.2268 -2.5989 61
    endloop
  endfacet
  facet normal 0.951057 -0.309017 0
    outer loop
      vertex 12.2268 -2.5989 -61
      vertex 11.4193 -5.08421 61
      vertex 11.4193 -5.08421 -61
    endloop
  endfacet
  facet normal -0.866025 -0.5 0
    outer loop
      vertex -10.1127 -7.34731 -61
      vertex -11.4193 -5.08421 61
      vertex -11.4193 -5.08421 -61
    endloop
  endfacet
  facet normal -0.866025 -0.5 0
    outer loop
      vertex -11.4193 -5.08421 61
      vertex -10.1127 -7.34731 -61
      vertex -10.1127 -7.34731 61
    endloop
  endfacet
  facet normal 0.587786 -0.809017 0
    outer loop
      vertex 6.25 -10.8253 -61
      vertex 8.36413 -9.28931 61
      vertex 6.25 -10.8253 61
    endloop
  endfacet
  facet normal 0.587786 -0.809017 0
    outer loop
      vertex 8.36413 -9.28931 61
      vertex 6.25 -10.8253 -61
      vertex 8.36413 -9.28931 -61
    endloop
  endfacet
  facet normal -0.207912 -0.978148 0
    outer loop
      vertex -3.86271 -11.8882 -61
      vertex -1.30661 -12.4315 61
      vertex -3.86271 -11.8882 61
    endloop
  endfacet
  facet normal -0.207912 -0.978148 -0
    outer loop
      vertex -1.30661 -12.4315 61
      vertex -3.86271 -11.8882 -61
      vertex -1.30661 -12.4315 -61
    endloop
  endfacet
  facet normal -0.743145 -0.669131 0
    outer loop
      vertex -8.36413 -9.28931 -61
      vertex -10.1127 -7.34731 61
      vertex -10.1127 -7.34731 -61
    endloop
  endfacet
  facet normal -0.743145 -0.669131 0
    outer loop
      vertex -10.1127 -7.34731 61
      vertex -8.36413 -9.28931 -61
      vertex -8.36413 -9.28931 61
    endloop
  endfacet
  facet normal -0.951057 -0.309017 0
    outer loop
      vertex -11.4193 -5.08421 -61
      vertex -12.2268 -2.5989 61
      vertex -12.2268 -2.5989 -61
    endloop
  endfacet
  facet normal -0.951057 -0.309017 0
    outer loop
      vertex -12.2268 -2.5989 61
      vertex -11.4193 -5.08421 -61
      vertex -11.4193 -5.08421 61
    endloop
  endfacet
  facet normal -0.994522 -0.104529 0
    outer loop
      vertex -12.2268 -2.5989 -61
      vertex -12.5 0 61
      vertex -12.5 0 -61
    endloop
  endfacet
  facet normal -0.994522 -0.104529 0
    outer loop
      vertex -12.5 0 61
      vertex -12.2268 -2.5989 -61
      vertex -12.2268 -2.5989 61
    endloop
  endfacet
  facet normal 0.406736 -0.913546 0
    outer loop
      vertex 3.86271 -11.8882 -61
      vertex 6.25 -10.8253 61
      vertex 3.86271 -11.8882 61
    endloop
  endfacet
  facet normal 0.406736 -0.913546 0
    outer loop
      vertex 6.25 -10.8253 61
      vertex 3.86271 -11.8882 -61
      vertex 6.25 -10.8253 -61
    endloop
  endfacet
  facet normal 0.207912 -0.978148 0
    outer loop
      vertex 1.30661 -12.4315 -61
      vertex 3.86271 -11.8882 61
      vertex 1.30661 -12.4315 61
    endloop
  endfacet
  facet normal 0.207912 -0.978148 0
    outer loop
      vertex 3.86271 -11.8882 61
      vertex 1.30661 -12.4315 -61
      vertex 3.86271 -11.8882 -61
    endloop
  endfacet
  facet normal 0.743145 -0.669131 0
    outer loop
      vertex 8.36413 -9.28931 61
      vertex 10.1127 -7.34731 -61
      vertex 10.1127 -7.34731 61
    endloop
  endfacet
  facet normal 0.743145 -0.669131 0
    outer loop
      vertex 10.1127 -7.34731 -61
      vertex 8.36413 -9.28931 61
      vertex 8.36413 -9.28931 -61
    endloop
  endfacet
  facet normal -0.406736 -0.913546 0
    outer loop
      vertex -6.25 -10.8253 -61
      vertex -3.86271 -11.8882 61
      vertex -6.25 -10.8253 61
    endloop
  endfacet
  facet normal -0.406736 -0.913546 -0
    outer loop
      vertex -3.86271 -11.8882 61
      vertex -6.25 -10.8253 -61
      vertex -3.86271 -11.8882 -61
    endloop
  endfacet
  facet normal -0.587786 -0.809017 0
    outer loop
      vertex -8.36413 -9.28931 -61
      vertex -6.25 -10.8253 61
      vertex -8.36413 -9.28931 61
    endloop
  endfacet
  facet normal -0.587786 -0.809017 -0
    outer loop
      vertex -6.25 -10.8253 61
      vertex -8.36413 -9.28931 -61
      vertex -6.25 -10.8253 -61
    endloop
  endfacet
  facet normal -0.994522 0.104529 0
    outer loop
      vertex 9.2924 -1.97516 -61
      vertex 9.5 0 61
      vertex 9.5 0 -61
    endloop
  endfacet
  facet normal -0.994522 0.104529 0
    outer loop
      vertex 9.5 0 61
      vertex 9.2924 -1.97516 -61
      vertex 9.2924 -1.97516 61
    endloop
  endfacet
  facet normal -0.207912 0.978148 0
    outer loop
      vertex 2.93566 -9.03504 -61
      vertex 0.99302 -9.44796 61
      vertex 2.93566 -9.03504 61
    endloop
  endfacet
  facet normal -0.207912 0.978148 0
    outer loop
      vertex 0.99302 -9.44796 61
      vertex 2.93566 -9.03504 -61
      vertex 0.99302 -9.44796 -61
    endloop
  endfacet
  facet normal -0.951057 0.309017 0
    outer loop
      vertex 8.67868 -3.864 -61
      vertex 9.2924 -1.97516 61
      vertex 9.2924 -1.97516 -61
    endloop
  endfacet
  facet normal -0.951057 0.309017 0
    outer loop
      vertex 9.2924 -1.97516 61
      vertex 8.67868 -3.864 -61
      vertex 8.67868 -3.864 61
    endloop
  endfacet
  facet normal 0.866026 0.5 0
    outer loop
      vertex -7.68566 -5.58396 61
      vertex -8.67868 -3.864 -61
      vertex -8.67868 -3.864 61
    endloop
  endfacet
  facet normal 0.866026 0.5 0
    outer loop
      vertex -8.67868 -3.864 -61
      vertex -7.68566 -5.58396 61
      vertex -7.68566 -5.58396 -61
    endloop
  endfacet
  facet normal -0.587785 0.809017 0
    outer loop
      vertex 6.35674 -7.05988 -61
      vertex 4.75 -8.22724 61
      vertex 6.35674 -7.05988 61
    endloop
  endfacet
  facet normal -0.587785 0.809017 0
    outer loop
      vertex 4.75 -8.22724 61
      vertex 6.35674 -7.05988 -61
      vertex 4.75 -8.22724 -61
    endloop
  endfacet
  facet normal -0.866026 0.5 0
    outer loop
      vertex 7.68566 -5.58396 -61
      vertex 8.67868 -3.864 61
      vertex 8.67868 -3.864 -61
    endloop
  endfacet
  facet normal -0.866026 0.5 0
    outer loop
      vertex 8.67868 -3.864 61
      vertex 7.68566 -5.58396 -61
      vertex 7.68566 -5.58396 61
    endloop
  endfacet
  facet normal 0.207912 0.978148 -0
    outer loop
      vertex -0.99302 -9.44796 -61
      vertex -2.93566 -9.03504 61
      vertex -0.99302 -9.44796 61
    endloop
  endfacet
  facet normal 0.207912 0.978148 0
    outer loop
      vertex -2.93566 -9.03504 61
      vertex -0.99302 -9.44796 -61
      vertex -2.93566 -9.03504 -61
    endloop
  endfacet
  facet normal 0.994522 0.104529 0
    outer loop
      vertex -9.2924 -1.97516 61
      vertex -9.5 0 -61
      vertex -9.5 0 61
    endloop
  endfacet
  facet normal 0.994522 0.104529 0
    outer loop
      vertex -9.5 0 -61
      vertex -9.2924 -1.97516 61
      vertex -9.2924 -1.97516 -61
    endloop
  endfacet
  facet normal -0.406737 0.913545 0
    outer loop
      vertex 4.75 -8.22724 -61
      vertex 2.93566 -9.03504 61
      vertex 4.75 -8.22724 61
    endloop
  endfacet
  facet normal -0.406737 0.913545 0
    outer loop
      vertex 2.93566 -9.03504 61
      vertex 4.75 -8.22724 -61
      vertex 2.93566 -9.03504 -61
    endloop
  endfacet
  facet normal 0 1 -0
    outer loop
      vertex 0.99302 -9.44796 -61
      vertex -0.99302 -9.44796 61
      vertex 0.99302 -9.44796 61
    endloop
  endfacet
  facet normal 0 1 0
    outer loop
      vertex -0.99302 -9.44796 61
      vertex 0.99302 -9.44796 -61
      vertex -0.99302 -9.44796 -61
    endloop
  endfacet
  facet normal 0.587785 0.809017 -0
    outer loop
      vertex -4.75 -8.22724 -61
      vertex -6.35674 -7.05988 61
      vertex -4.75 -8.22724 61
    endloop
  endfacet
  facet normal 0.587785 0.809017 0
    outer loop
      vertex -6.35674 -7.05988 61
      vertex -4.75 -8.22724 -61
      vertex -6.35674 -7.05988 -61
    endloop
  endfacet
  facet normal 0.406737 0.913545 -0
    outer loop
      vertex -2.93566 -9.03504 -61
      vertex -4.75 -8.22724 61
      vertex -2.93566 -9.03504 61
    endloop
  endfacet
  facet normal 0.406737 0.913545 0
    outer loop
      vertex -4.75 -8.22724 61
      vertex -2.93566 -9.03504 -61
      vertex -4.75 -8.22724 -61
    endloop
  endfacet
  facet normal 0.951057 0.309017 0
    outer loop
      vertex -8.67868 -3.864 61
      vertex -9.2924 -1.97516 -61
      vertex -9.2924 -1.97516 61
    endloop
  endfacet
  facet normal 0.951057 0.309017 0
    outer loop
      vertex -9.2924 -1.97516 -61
      vertex -8.67868 -3.864 61
      vertex -8.67868 -3.864 -61
    endloop
  endfacet
  facet normal 0.743145 0.669131 0
    outer loop
      vertex -6.35674 -7.05988 61
      vertex -7.68566 -5.58396 -61
      vertex -7.68566 -5.58396 61
    endloop
  endfacet
  facet normal 0.743145 0.669131 0
    outer loop
      vertex -7.68566 -5.58396 -61
      vertex -6.35674 -7.05988 61
      vertex -6.35674 -7.05988 -61
    endloop
  endfacet
  facet normal -0.743145 0.669131 0
    outer loop
      vertex 6.35674 -7.05988 -61
      vertex 7.68566 -5.58396 61
      vertex 7.68566 -5.58396 -61
    endloop
  endfacet
  facet normal -0.743145 0.669131 0
    outer loop
      vertex 7.68566 -5.58396 61
      vertex 6.35674 -7.05988 -61
      vertex 6.35674 -7.05988 61
    endloop
  endfacet
  facet normal 0 1 -0
    outer loop
      vertex 12.5 0 -61
      vertex 9.5 0 61
      vertex 12.5 0 61
    endloop
  endfacet
  facet normal 0 1 0
    outer loop
      vertex 9.5 0 61
      vertex 12.5 0 -61
      vertex 9.5 0 -61
    endloop
  endfacet
  facet normal 0 1 -0
    outer loop
      vertex -9.5 0 -61
      vertex -12.5 0 61
      vertex -9.5 0 61
    endloop
  endfacet
  facet normal 0 1 0
    outer loop
      vertex -12.5 0 61
      vertex -9.5 0 -61
      vertex -12.5 0 -61
    endloop
  endfacet
endsolid OpenSCAD_Model
